<svg xmlns="http://www.w3.org/2000/svg" width="24" height="24" viewBox="0 0 24 24">
  <path d="M3,3H6V6H3Z"/>
  <path d="M9,0V9H0V0ZM7.5,1.5h-6v6h6ZM6,18H3v3H6Z"/>
  <path d="M9,15v9H0V15ZM1.5,16.5v6h6v-6ZM18,3h3V6H18Z"/>
  <path d="M15,0V9h9V0Zm7.5,1.5v6h-6v-6ZM12,1.5V0h1.5V3H12V6H10.5V1.5ZM12,9V6h1.5V9ZM9,12V10.5h1.5V9H12v3h1.5V10.5H21V12H15v1.5H10.5V12Zm0,0v1.5H3V12H1.5v1.5H0v-3H4.5V12Zm15,1.5H22.5v-3H24Zm-1.5,0H21v3h3V15H22.5Zm-6,0h3V15H18v1.5H16.5Zm3,4.5V16.5H18V18H16.5v1.5h-3V21H18V18Zm0,0H24v1.5H21V21H19.5Zm-6-1.5V18H15V15H10.5v1.5Z"/>
  <path d="M10.5,18H12v4.5h6V24H10.5ZM24,21v3H19.5V22.5h3V21Z"/>
</svg>
