<?xml version="1.0" encoding="utf-8"?>
<!-- Generator: Adobe Illustrator 16.0.0, SVG Export Plug-In . SVG Version: 6.00 Build 0)  -->
<!DOCTYPE svg PUBLIC "-//W3C//DTD SVG 1.1//EN" "http://www.w3.org/Graphics/SVG/1.1/DTD/svg11.dtd">
<svg version="1.1" id="Слой_1" xmlns="http://www.w3.org/2000/svg" xmlns:xlink="http://www.w3.org/1999/xlink" x="0px" y="0px"
	 width="25px" height="25px" viewBox="0 0 25 25" enable-background="new 0 0 25 25" xml:space="preserve">
<g>
	<path fill="#4F4F4F" d="M21.57,20.848H3.431c-1.616,0-2.931-1.314-2.931-2.93V7.283c0-0.675,0.311-1.437,0.83-2.037
		c0.61-0.705,1.427-1.093,2.301-1.093H21.37c1.639,0,3.13,1.454,3.13,3.05v10.716C24.5,19.533,23.186,20.848,21.57,20.848z
		 M3.631,5.196c-1.351,0-2.087,1.378-2.087,2.087v10.635c0,1.04,0.846,1.887,1.887,1.887h18.14c1.04,0,1.887-0.847,1.887-1.887
		V7.202c0-1.013-1.034-2.006-2.087-2.006H3.631z"/>
	<rect x="1.021" y="7.804" fill="#4F4F4F" width="22.957" height="2.609"/>
</g>
</svg>
