<?xml version="1.0" encoding="utf-8"?>
<!-- Generator: Adobe Illustrator 16.0.0, SVG Export Plug-In . SVG Version: 6.00 Build 0)  -->
<!DOCTYPE svg PUBLIC "-//W3C//DTD SVG 1.1//EN" "http://www.w3.org/Graphics/SVG/1.1/DTD/svg11.dtd">
<svg version="1.1" id="Слой_1" xmlns="http://www.w3.org/2000/svg" xmlns:xlink="http://www.w3.org/1999/xlink" x="0px" y="0px"
	 width="25px" height="25px" viewBox="0 0 25 25" enable-background="new 0 0 25 25" xml:space="preserve">
<g>
	<path fill="#4D4F53" d="M19.665,10.872h-1.503V7.665c0-3.106-2.556-5.661-5.662-5.661S6.838,4.559,6.838,7.665v3.207H5.335V7.665
		C5.335,3.707,8.542,0.5,12.5,0.5s7.165,3.207,7.165,7.165V10.872"/>
	<path fill="#4D4F53" d="M6.087,11.674c-0.451,0-0.802,0.351-0.802,0.802v9.62c0,0.451,0.351,0.802,0.802,0.802h12.826
		c0.451,0,0.802-0.351,0.802-0.802v-9.62c0-0.451-0.351-0.802-0.802-0.802H6.087z M18.913,24.5H6.087
		c-1.303,0-2.405-1.102-2.405-2.404v-9.62c0-1.303,1.103-2.405,2.405-2.405h12.826c1.303,0,2.405,1.103,2.405,2.405v9.62
		C21.318,23.448,20.216,24.5,18.913,24.5z"/>
	<path fill="#4D4F53" d="M14.104,14.881c0,0.901-0.701,1.603-1.604,1.603s-1.604-0.701-1.604-1.603c0-0.902,0.701-1.604,1.604-1.604
		S14.104,14.028,14.104,14.881"/>
	<polyline fill="#4D4F53" points="12.9,14.881 12.1,14.881 11.298,19.69 13.702,19.69 12.9,14.881 	"/>
</g>
</svg>
