<?xml version="1.0" encoding="utf-8"?>
<!-- Generator: Adobe Illustrator 16.0.0, SVG Export Plug-In . SVG Version: 6.00 Build 0)  -->
<!DOCTYPE svg PUBLIC "-//W3C//DTD SVG 1.1//EN" "http://www.w3.org/Graphics/SVG/1.1/DTD/svg11.dtd">
<svg version="1.1" id="Слой_1" xmlns="http://www.w3.org/2000/svg" xmlns:xlink="http://www.w3.org/1999/xlink" x="0px" y="0px"
	 width="25px" height="25px" viewBox="0 0 25 25" enable-background="new 0 0 25 25" xml:space="preserve">
<path fill="#4D4F53" d="M15.879,8.224c-0.345-0.104-0.932-0.241-1.723-0.241c-3.035,0-5.484,2.862-5.484,6.207
	c0,1.518,0.759,2.62,2.277,2.62c1.999,0,3.827-2.552,4.206-4.688L15.879,8.224z M17.774,23.12c-1.896,0.999-3.827,1.38-6.138,1.38
	c-5.654,0-10.447-4.139-10.447-10.759C1.189,6.638,6.12,0.5,13.776,0.5c6,0,10.034,4.207,10.034,9.966
	c0,5.172-2.897,8.206-6.138,8.206c-1.381,0-2.656-0.932-2.552-3.034h-0.138c-1.207,2.034-2.793,3.034-4.862,3.034
	c-1.999,0-3.723-1.621-3.723-4.344c0-4.276,3.377-8.174,8.17-8.174c1.482,0,2.793,0.311,3.689,0.725l-1.171,6.241
	c-0.517,2.621-0.104,3.827,1.033,3.862c1.76,0.034,3.726-2.311,3.726-6.31c0-5.001-3.001-8.586-8.348-8.586
	c-5.618,0-10.343,4.447-10.343,11.448c0,5.759,3.759,9.309,8.861,9.309c1.966,0,3.793-0.412,5.208-1.206L17.774,23.12z"/>
</svg>
