<?xml version="1.0" encoding="utf-8"?>
<!-- Generator: Adobe Illustrator 16.0.0, SVG Export Plug-In . SVG Version: 6.00 Build 0)  -->
<!DOCTYPE svg PUBLIC "-//W3C//DTD SVG 1.1//EN" "http://www.w3.org/Graphics/SVG/1.1/DTD/svg11.dtd">
<svg version="1.1" id="Layer_1" xmlns="http://www.w3.org/2000/svg" xmlns:xlink="http://www.w3.org/1999/xlink" x="0px" y="0px"
	 width="39.813px" height="396.813px" viewBox="0 0 39.813 396.813" enable-background="new 0 0 39.813 396.813"
	 xml:space="preserve">
<path fill="none" stroke="#4D4F53" stroke-width="2" stroke-linecap="round" stroke-miterlimit="10" d="M23.194,57.606
	c-0.089-0.904-0.057-1.534-0.057-2.36c0.438-0.213,1.221-1.582,1.354-2.738c0.345-0.026,0.886-0.343,1.045-1.582
	c0.084-0.664-0.254-1.038-0.464-1.156c0.562-1.573,1.723-6.444-2.148-6.947c-0.396-0.657-1.416-0.988-2.741-0.988
	c-5.306,0.091-5.942,3.748-4.781,7.935c-0.206,0.119-0.546,0.493-0.462,1.156c0.16,1.239,0.702,1.554,1.045,1.582
	c0.131,1.155,0.946,2.525,1.384,2.738c0,0.826,0.033,1.456-0.053,2.36c-1.049,2.64-8.129,1.897-8.456,6.99H31.62
	C31.292,59.505,24.243,60.245,23.194,57.606z"/>
<g>
	<path fill="#4D4F53" d="M28.378,137.429v-2.322c0-4.496-3.643-8.137-8.138-8.137s-8.139,3.643-8.139,8.137v2.322H9.779v15.112
		h20.923v-15.112H28.378L28.378,137.429z M14.429,135.106c0-3.204,2.606-5.814,5.812-5.814c3.204,0,5.813,2.609,5.813,5.814v2.322
		H14.429V135.106z M28.378,150.216H12.104v-10.46h16.273V150.216z"/>
	<path fill="#4D4F53" d="M19.079,145.115v2.776h2.323v-2.776c0.354-0.322,0.582-0.779,0.582-1.293c0-0.96-0.782-1.743-1.744-1.743
		c-0.964,0-1.746,0.782-1.746,1.743C18.497,144.337,18.724,144.795,19.079,145.115z"/>
</g>
<g>
	<path fill="#4F4F4F" d="M28.808,222.979c-0.181-0.146-0.432-0.168-0.634-0.058l-1.203,0.662c-1.495-2.299-4.052-3.703-6.826-3.703
		c-4.49,0-8.145,3.655-8.145,8.146c0,0.493,0.399,0.89,0.891,0.89s0.89-0.396,0.89-0.89c0-3.51,2.854-6.362,6.364-6.362
		c2.125,0,4.083,1.051,5.262,2.782l-1.128,0.62c-0.204,0.112-0.316,0.334-0.293,0.563c0.026,0.229,0.188,0.421,0.41,0.485
		l3.019,0.874c0.053,0.018,0.107,0.023,0.16,0.023c0.095,0,0.189-0.025,0.272-0.071c0.134-0.073,0.231-0.195,0.276-0.341
		l0.874-3.021C29.065,223.361,28.988,223.123,28.808,222.979L28.808,222.979z"/>
	<path fill="#4F4F4F" d="M27.587,227.849c-0.49,0-0.889,0.397-0.889,0.89c0,3.509-2.854,6.363-6.365,6.363
		c-2.122,0-4.083-1.05-5.261-2.782l1.126-0.621c0.203-0.11,0.317-0.333,0.292-0.563c-0.025-0.23-0.187-0.423-0.409-0.486
		l-3.019-0.874c-0.053-0.018-0.106-0.021-0.159-0.021c-0.096,0-0.19,0.024-0.276,0.069c-0.132,0.074-0.23,0.197-0.272,0.343
		l-0.875,3.019c-0.064,0.223,0.012,0.461,0.191,0.604c0.182,0.146,0.431,0.167,0.634,0.056l1.201-0.66
		c1.497,2.298,4.053,3.703,6.826,3.703c4.49,0,8.146-3.655,8.146-8.146C28.479,228.248,28.081,227.849,27.587,227.849
		L27.587,227.849z"/>
</g>
<g id="calendar_1_">
	<path fill="#4D4F53" d="M30.365,85.959h-3.293V84.44c0-0.421-0.34-0.76-0.758-0.76c-0.421,0-0.758,0.339-0.758,0.76v1.519h-4.56
		V84.44c0-0.421-0.341-0.76-0.758-0.76c-0.42,0-0.76,0.339-0.76,0.76v1.519h-4.558V84.44c0-0.421-0.341-0.76-0.759-0.76
		s-0.759,0.339-0.759,0.76v1.519h-3.291c-1.119,0-2.026,0.905-2.026,2.025v17.973c0,1.119,0.906,2.026,2.026,2.026h20.25
		c1.119,0,2.026-0.906,2.026-2.026V87.983C32.389,86.864,31.482,85.959,30.365,85.959z M30.87,105.955
		c0,0.28-0.227,0.506-0.505,0.506H10.113c-0.279,0-0.506-0.227-0.506-0.506V87.983c0-0.279,0.227-0.506,0.506-0.506h3.292v1.52
		c0,0.42,0.341,0.759,0.759,0.759c0.419,0,0.758-0.34,0.758-0.759v-1.52h4.558v1.52c0,0.42,0.34,0.759,0.76,0.759
		c0.418,0,0.757-0.34,0.757-0.759v-1.52h4.56v1.52c0,0.42,0.339,0.759,0.758,0.759c0.418,0,0.76-0.34,0.76-0.759v-1.52h3.291
		c0.278,0,0.505,0.228,0.505,0.506L30.87,105.955L30.87,105.955z"/>
	<rect x="13.404" y="92.793" fill="#4D4F53" width="3.038" height="2.278"/>
	<rect x="13.404" y="96.591" fill="#4D4F53" width="3.038" height="2.278"/>
	<rect x="13.404" y="100.386" fill="#4D4F53" width="3.038" height="2.277"/>
	<rect x="18.72" y="100.386" fill="#4D4F53" width="3.036" height="2.277"/>
	<rect x="18.72" y="96.591" fill="#4D4F53" width="3.036" height="2.278"/>
	<rect x="18.72" y="92.793" fill="#4D4F53" width="3.036" height="2.278"/>
	<rect x="24.035" y="100.386" fill="#4D4F53" width="3.037" height="2.277"/>
	<rect x="24.035" y="96.591" fill="#4D4F53" width="3.037" height="2.278"/>
	<rect x="24.035" y="92.793" fill="#4D4F53" width="3.037" height="2.278"/>
</g>
<g id="Слой_1_1_">
</g>
<g id="mail">
	<path fill="#4D4F53" d="M32.178,182.094c-0.563-1.312-1.362-2.447-2.399-3.41c-1.036-0.96-2.284-1.717-3.746-2.263
		c-1.461-0.545-3.094-0.817-4.9-0.817c-1.306,0-2.55,0.164-3.73,0.488c-1.182,0.327-2.278,0.788-3.291,1.389
		c-1.011,0.599-1.927,1.324-2.752,2.174c-0.823,0.851-1.523,1.8-2.102,2.849c-0.577,1.049-1.021,2.187-1.332,3.409
		c-0.311,1.226-0.465,2.505-0.465,3.844c0,1.946,0.318,3.689,0.955,5.229c0.635,1.541,1.557,2.847,2.76,3.916
		c1.202,1.069,2.668,1.888,4.396,2.454c1.728,0.566,3.688,0.851,5.881,0.851c1.251,0,2.398-0.094,3.441-0.28
		c1.043-0.188,2.065-0.494,3.072-0.924l-0.817-1.973c-0.802,0.342-1.676,0.603-2.616,0.777c-0.94,0.178-1.978,0.266-3.112,0.266
		c-1.84,0-3.483-0.229-4.934-0.689c-1.45-0.462-2.677-1.133-3.682-2.014c-1.007-0.883-1.776-1.963-2.313-3.241
		c-0.533-1.277-0.801-2.734-0.801-4.372c0-1.68,0.284-3.246,0.851-4.701s1.354-2.724,2.367-3.803
		c1.011-1.081,2.216-1.931,3.617-2.551s2.936-0.93,4.604-0.93c1.391,0,2.678,0.216,3.858,0.648c1.182,0.435,2.199,1.033,3.049,1.798
		s1.517,1.671,1.999,2.72c0.479,1.049,0.721,2.19,0.721,3.433c0,1.188-0.143,2.255-0.426,3.201
		c-0.284,0.947-0.665,1.746-1.146,2.399c-0.483,0.652-1.043,1.151-1.687,1.5c-0.643,0.348-1.32,0.521-2.036,0.521
		c-0.312,0-0.538-0.085-0.675-0.257c-0.14-0.169-0.209-0.412-0.209-0.722c0-0.247,0.034-0.544,0.104-0.893
		c0.07-0.346,0.151-0.801,0.249-1.263l2.068-9.261h-2.551l-0.304,1.367c-0.517-0.556-1.1-0.951-1.749-1.239
		c-0.653-0.29-1.418-0.421-2.295-0.421c-0.994,0-1.938,0.241-2.825,0.713c-0.889,0.471-1.666,1.123-2.334,1.952
		c-0.669,0.829-1.194,1.813-1.579,2.945c-0.386,1.134-0.578,2.364-0.578,3.692c0,0.896,0.122,1.698,0.369,2.398
		c0.246,0.699,0.587,1.294,1.026,1.78c0.438,0.486,0.965,0.855,1.581,1.106c0.613,0.252,1.284,0.378,2.012,0.378
		c0.856,0,1.67-0.199,2.439-0.596c0.771-0.395,1.461-0.957,2.069-1.686c0.032,0.321,0.124,0.62,0.274,0.899
		c0.147,0.276,0.349,0.518,0.602,0.721c0.25,0.203,0.541,0.365,0.873,0.481s0.692,0.177,1.075,0.177
		c1.134,0,2.186-0.227,3.154-0.675c0.968-0.447,1.805-1.1,2.511-1.949c0.705-0.851,1.256-1.892,1.65-3.12
		c0.396-1.229,0.595-2.627,0.595-4.188C33.02,184.818,32.74,183.404,32.178,182.094z M22.542,189.756
		c-0.148,0.652-0.362,1.237-0.641,1.758c-0.279,0.517-0.603,0.962-0.971,1.331s-0.778,0.651-1.228,0.849
		c-0.451,0.2-0.915,0.297-1.396,0.297c-1.84,0-2.76-1.16-2.76-3.482c0-0.95,0.125-1.85,0.377-2.693s0.585-1.583,1.003-2.214
		c0.419-0.633,0.901-1.133,1.452-1.501c0.552-0.369,1.126-0.555,1.726-0.555c0.813,0,1.503,0.15,2.07,0.448
		c0.566,0.3,1.037,0.664,1.411,1.092L22.542,189.756z"/>
</g>
<g>
	<path fill="none" stroke="#4D4F53" stroke-width="2" stroke-miterlimit="10" d="M30.861,6.358c0,0-18.944,0-21.908,0
		c-1.981,0-3.221,1.933-3.221,3.222v13.132c0,1.643,1.332,2.975,2.973,2.975h22.401c1.643,0,2.972-1.332,2.972-2.975V9.481
		C34.079,7.839,32.503,6.358,30.861,6.358z"/>
	<rect x="5.733" y="12.424" fill="none" stroke="#4D4F53" stroke-width="2" stroke-miterlimit="10" width="28.346" height="1.178"/>
</g>
<g>
	<g>
		<g>
			<path id="SVGID_1_" fill="#FFFFFF" d="M4.314,257.659c0-0.804,0.657-1.461,1.461-1.461h28.259c0.804,0,1.461,0.657,1.461,1.461
				v16.565c0,0.804-0.657,1.461-1.461,1.461H5.775c-0.804,0-1.461-0.657-1.461-1.461V257.659z"/>
		</g>
		<g>
			<defs>
				<path id="SVGID_5_" d="M4.314,257.659c0-0.804,0.657-1.461,1.461-1.461h28.259c0.804,0,1.461,0.657,1.461,1.461v16.565
					c0,0.804-0.657,1.461-1.461,1.461H5.775c-0.804,0-1.461-0.657-1.461-1.461V257.659z"/>
			</defs>
			<clipPath id="SVGID_6_">
				<use xlink:href="#SVGID_5_"  overflow="visible"/>
			</clipPath>
			<path clip-path="url(#SVGID_6_)" fill="#FFFFFF" stroke="#CBCBCB" stroke-width="2" stroke-miterlimit="10" d="M4.314,257.659
				c0-0.804,0.657-1.461,1.461-1.461h28.259c0.804,0,1.461,0.657,1.461,1.461v16.565c0,0.804-0.657,1.461-1.461,1.461H5.775
				c-0.804,0-1.461-0.657-1.461-1.461V257.659z"/>
		</g>
	</g>
	<g>
		<g>
			<defs>
				<rect id="SVGID_7_" x="5.604" y="271.788" width="28.576" height="2.606"/>
			</defs>
			<clipPath id="SVGID_8_">
				<use xlink:href="#SVGID_7_"  overflow="visible"/>
			</clipPath>
			<rect x="4.387" y="270.571" clip-path="url(#SVGID_8_)" fill="#F6AC1D" width="31.01" height="5.041"/>
		</g>
	</g>
	<g>
		<g>
			<defs>
				<rect id="SVGID_9_" x="5.604" y="257.489" width="28.576" height="2.606"/>
			</defs>
			<clipPath id="SVGID_10_">
				<use xlink:href="#SVGID_9_"  overflow="visible"/>
			</clipPath>
			<rect x="4.387" y="256.271" clip-path="url(#SVGID_10_)" fill="#005BAC" width="31.01" height="5.042"/>
		</g>
	</g>
	<g>
		<g id="形状_1_3_" enable-background="new    ">
			<g id="形状_1">
				<g>
					<path fill="#005BAC" d="M17.624,262.224l-1.208,7.441h1.936l1.21-7.441H17.624L17.624,262.224z M14.785,262.224l-1.848,5.117
						l-0.219-1.103l0,0l-0.047-0.247c-0.222-0.48-0.741-1.396-1.719-2.177c-0.289-0.232-0.58-0.428-0.861-0.6l1.68,6.45h2.017
						l3.083-7.441H14.785L14.785,262.224z M22.344,264.288c0-0.841,1.887-0.731,2.717-0.272l0.275-1.6c0,0-0.855-0.326-1.744-0.326
						c-0.959,0-3.243,0.422-3.243,2.465c0,1.924,2.681,1.945,2.681,2.955c0,1.009-2.404,0.829-3.196,0.192l-0.289,1.67
						c0,0,0.866,0.42,2.188,0.42c1.318,0,3.316-0.685,3.316-2.547C25.05,265.308,22.344,265.13,22.344,264.288z M30.249,262.224
						h-1.557c-0.721,0-0.895,0.552-0.895,0.552l-2.889,6.89h2.021l0.4-1.104h2.465l0.225,1.104H31.8L30.249,262.224z
						 M27.889,267.029l1.018-2.781l0.572,2.781H27.889z"/>
				</g>
			</g>
		</g>
		<g id="形状_1_2_" enable-background="new    ">
			<g id="形状_1_1_">
				<g>
					<path fill="#F6AC1D" d="M12.093,262.924c0,0-0.079-0.67-0.936-0.67h-3.11l-0.035,0.123c0,0,1.495,0.308,2.927,1.451
						c1.372,1.091,1.818,2.447,1.818,2.447L12.093,262.924z"/>
				</g>
			</g>
		</g>
	</g>
</g>
<g>
	<g>
		<path id="SVGID_2_" fill="#FFFFFF" d="M4.314,294.715c0-0.804,0.657-1.461,1.461-1.461h28.259c0.804,0,1.461,0.657,1.461,1.461
			v16.565c0,0.804-0.657,1.461-1.461,1.461H5.775c-0.804,0-1.461-0.657-1.461-1.461V294.715z"/>
	</g>
	<g>
		<defs>
			<path id="SVGID_11_" d="M4.314,294.715c0-0.804,0.657-1.461,1.461-1.461h28.259c0.804,0,1.461,0.657,1.461,1.461v16.565
				c0,0.804-0.657,1.461-1.461,1.461H5.775c-0.804,0-1.461-0.657-1.461-1.461V294.715z"/>
		</defs>
		<clipPath id="SVGID_12_">
			<use xlink:href="#SVGID_11_"  overflow="visible"/>
		</clipPath>
		<path clip-path="url(#SVGID_12_)" fill="#FFFFFF" stroke="#CBCBCB" stroke-width="2" stroke-miterlimit="10" d="M4.314,294.715
			c0-0.804,0.657-1.461,1.461-1.461h28.259c0.804,0,1.461,0.657,1.461,1.461v16.565c0,0.804-0.657,1.461-1.461,1.461H5.775
			c-0.804,0-1.461-0.657-1.461-1.461V294.715z"/>
	</g>
	<g id="XMLID_328_">
		<rect x="16.778" y="297.383" fill="#FF5F00" width="6.251" height="11.23"/>
		<path id="XMLID_330_" fill="#EB001B" d="M17.176,302.997c0-2.278,1.065-4.307,2.728-5.614c-1.215-0.956-2.749-1.527-4.418-1.527
			c-3.941,0-7.138,3.199-7.138,7.142c0,3.943,3.197,7.143,7.138,7.143c1.669,0,3.205-0.568,4.418-1.527
			C18.241,307.304,17.176,305.276,17.176,302.997z"/>
		<path fill="#F69E1A" d="M31.461,302.997c0,3.943-3.197,7.143-7.141,7.143c-1.668,0-3.203-0.568-4.417-1.527
			c1.663-1.308,2.729-3.337,2.729-5.616c0-2.278-1.066-4.307-2.729-5.615c1.214-0.955,2.749-1.526,4.417-1.526
			C28.261,295.855,31.461,299.054,31.461,302.997z M30.779,307.424v-0.233h0.092v-0.043h-0.236v0.046h0.093v0.231L30.779,307.424
			L30.779,307.424z M31.236,307.424v-0.279h-0.072l-0.084,0.192l-0.082-0.192h-0.072v0.279h0.053v-0.209l0.074,0.179h0.055
			l0.076-0.179v0.209H31.236z"/>
	</g>
</g>
<g>
	<g>
		<path id="SVGID_3_" fill="#FFFFFF" d="M4.649,332.382c0-0.804,0.657-1.461,1.461-1.461h28.259c0.803,0,1.461,0.657,1.461,1.461
			v16.565c0,0.804-0.658,1.461-1.461,1.461H6.11c-0.804,0-1.461-0.657-1.461-1.461V332.382z"/>
	</g>
	<g>
		<defs>
			<path id="SVGID_13_" d="M4.649,332.382c0-0.804,0.657-1.461,1.461-1.461h28.259c0.803,0,1.461,0.657,1.461,1.461v16.565
				c0,0.804-0.658,1.461-1.461,1.461H6.11c-0.804,0-1.461-0.657-1.461-1.461V332.382z"/>
		</defs>
		<clipPath id="SVGID_14_">
			<use xlink:href="#SVGID_13_"  overflow="visible"/>
		</clipPath>
		<path clip-path="url(#SVGID_14_)" fill="#FFFFFF" stroke="#CBCBCB" stroke-width="2" stroke-miterlimit="10" d="M4.649,332.382
			c0-0.804,0.657-1.461,1.461-1.461h28.259c0.803,0,1.461,0.657,1.461,1.461v16.565c0,0.804-0.658,1.461-1.461,1.461H6.11
			c-0.804,0-1.461-0.657-1.461-1.461V332.382z"/>
	</g>
	<g id="XMLID_12_">
		<rect x="17.113" y="335.051" fill="#7573C0" width="6.249" height="11.229"/>
		<path id="XMLID_16_" fill="#EB001B" d="M17.511,340.665c0-2.28,1.067-4.309,2.728-5.616c-1.215-0.958-2.748-1.527-4.414-1.527
			c-3.946,0-7.141,3.199-7.141,7.144c0,3.941,3.195,7.142,7.141,7.142c1.667,0,3.199-0.571,4.414-1.528
			C18.578,344.971,17.511,342.943,17.511,340.665z"/>
		<path fill="#02A0DF" d="M31.114,345.091v-0.23h0.092v-0.049h-0.237v0.049h0.095v0.23H31.114z M31.571,345.091v-0.279h-0.073
			l-0.08,0.192l-0.086-0.192H31.26v0.279h0.051v-0.212l0.078,0.183h0.053l0.079-0.183v0.212H31.571z"/>
		<path fill="#02A0DF" d="M31.796,340.665c0,3.941-3.199,7.142-7.143,7.142c-1.665,0-3.2-0.571-4.415-1.528
			c1.662-1.307,2.729-3.335,2.729-5.613c0-2.28-1.065-4.309-2.729-5.616c1.215-0.958,2.749-1.527,4.414-1.527
			C28.596,333.522,31.796,336.72,31.796,340.665z"/>
	</g>
</g>
<g>
	<g>
		<path id="SVGID_4_" fill="#FFFFFF" d="M4.65,370.381c0-0.804,0.657-1.461,1.461-1.461h28.258c0.803,0,1.461,0.657,1.461,1.461
			v16.565c0,0.804-0.658,1.461-1.461,1.461H6.111c-0.804,0-1.461-0.657-1.461-1.461V370.381z"/>
	</g>
	<g>
		<defs>
			<path id="SVGID_15_" d="M4.65,370.381c0-0.804,0.657-1.461,1.461-1.461h28.258c0.803,0,1.461,0.657,1.461,1.461v16.565
				c0,0.804-0.658,1.461-1.461,1.461H6.111c-0.804,0-1.461-0.657-1.461-1.461V370.381z"/>
		</defs>
		<clipPath id="SVGID_16_">
			<use xlink:href="#SVGID_15_"  overflow="visible"/>
		</clipPath>
		<path clip-path="url(#SVGID_16_)" fill="#FFFFFF" stroke="#CBCBCB" stroke-width="2" stroke-miterlimit="10" d="M4.65,370.381
			c0-0.804,0.657-1.461,1.461-1.461h28.258c0.803,0,1.461,0.657,1.461,1.461v16.565c0,0.804-0.658,1.461-1.461,1.461H6.111
			c-0.804,0-1.461-0.657-1.461-1.461V370.381z"/>
	</g>
	<g>
		<g>
			<path fill="#319B42" d="M22.134,375.865l-1.589,3.444h-0.161v-4.191h-2.258v7.093h1.916c0.502,0,0.958-0.291,1.17-0.748
				l1.59-3.443h0.159v4.19h2.259v-7.093h-1.916C22.801,375.117,22.345,375.408,22.134,375.865z"/>
			<path fill="#319B42" d="M13.665,376.05l-0.941,3.259h-0.161l-0.94-3.259c-0.158-0.554-0.665-0.933-1.24-0.933H8.13v7.093h2.257
				v-4.19h0.161l1.291,4.19h1.611l1.291-4.19h0.161v4.19h2.257v-7.093h-2.255C14.329,375.117,13.825,375.497,13.665,376.05z"/>
			<path fill="#319B42" d="M26.188,378.342v3.868h2.253v-2.257h2.422c1.053,0,1.946-0.674,2.277-1.611H26.188z"/>
		</g>
		
			<linearGradient id="SVGID_17_" gradientUnits="userSpaceOnUse" x1="726.0554" y1="460.6189" x2="733.4714" y2="460.6189" gradientTransform="matrix(1 0 0 1 -700.1895 -84.0508)">
			<stop  offset="0" style="stop-color:#00A3E1"/>
			<stop  offset="0.3042" style="stop-color:#009ADD"/>
			<stop  offset="0.7987" style="stop-color:#0082D4"/>
			<stop  offset="1" style="stop-color:#0076CF"/>
		</linearGradient>
		<path fill="url(#SVGID_17_)" d="M30.863,375.117h-4.997c0.302,1.651,1.748,2.902,3.485,2.902h3.883
			c0.033-0.155,0.048-0.319,0.048-0.483C33.281,376.2,32.199,375.117,30.863,375.117z"/>
	</g>
</g>
</svg>
