<?xml version="1.0" encoding="utf-8"?>
<!-- Generator: Adobe Illustrator 16.0.0, SVG Export Plug-In . SVG Version: 6.00 Build 0)  -->
<!DOCTYPE svg PUBLIC "-//W3C//DTD SVG 1.1//EN" "http://www.w3.org/Graphics/SVG/1.1/DTD/svg11.dtd">
<svg version="1.1" id="Слой_1" xmlns="http://www.w3.org/2000/svg" xmlns:xlink="http://www.w3.org/1999/xlink" x="0px" y="0px"
	 width="25px" height="25px" viewBox="0 0 25 25" enable-background="new 0 0 25 25" xml:space="preserve">
<path fill="#4F4F4F" d="M23.795,24.5H1.205l0.033-0.556c0.205-3.402,2.94-4.479,5.138-5.343c1.339-0.526,2.5-0.983,2.85-1.797
	c0.055-0.648,0.051-1.149,0.046-1.726c-0.001-0.092-0.001-0.185-0.002-0.28c-0.521-0.508-1.062-1.623-1.252-2.608
	c-0.402-0.194-0.888-0.688-1.038-1.936C6.905,9.628,7.096,9.153,7.352,8.85C6.658,5.984,6.856,3.806,7.944,2.373
	C8.858,1.168,10.37,0.538,12.438,0.5h0.009c1.359,0,2.375,0.367,2.897,1.038c0.964,0.188,1.695,0.674,2.178,1.45
	c1.156,1.863,0.466,4.779,0.142,5.878c0.248,0.304,0.432,0.773,0.357,1.389c-0.149,1.247-0.636,1.742-1.038,1.936
	c-0.188,0.986-0.714,2.098-1.222,2.605c-0.001,0.098-0.002,0.193-0.002,0.288c-0.006,0.575-0.01,1.075,0.045,1.721
	c0.35,0.813,1.506,1.271,2.84,1.797c2.189,0.864,4.914,1.94,5.118,5.343L23.795,24.5z M2.35,23.451h20.3
	c-0.409-2.302-2.432-3.101-4.393-3.874c-1.533-0.605-2.981-1.178-3.461-2.468l-0.024-0.065l-0.007-0.07
	c-0.066-0.733-0.062-1.3-0.056-1.899c0.001-0.169,0.003-0.343,0.003-0.526V14.23l0.275-0.145c0.244-0.167,0.892-1.31,1.004-2.357
	l0.047-0.432l0.432-0.035c0.098-0.008,0.4-0.233,0.509-1.132c0.059-0.488-0.186-0.655-0.188-0.657l-0.357-0.217l0.132-0.397
	c0.436-1.311,0.94-3.907,0.063-5.318c-0.353-0.568-0.898-0.897-1.666-1.004l-0.256-0.035L14.58,2.278
	c-0.26-0.456-1.055-0.729-2.128-0.729c-1.727,0.033-2.963,0.523-3.672,1.458C7.871,4.205,7.754,6.24,8.444,8.893l0.098,0.377
	L8.209,9.473C8.207,9.475,7.963,9.642,8.021,10.13c0.108,0.899,0.411,1.125,0.508,1.132l0.433,0.036l0.046,0.431
	c0.109,1.023,0.787,2.192,1.033,2.356l0.277,0.145v0.318c0,0.182,0.001,0.354,0.003,0.521c0.005,0.602,0.01,1.169-0.057,1.904
	l-0.006,0.07l-0.024,0.065c-0.48,1.291-1.934,1.862-3.473,2.468C4.792,20.352,2.761,21.15,2.35,23.451z"/>
</svg>
