<?xml version="1.0" encoding="utf-8"?>
<!-- Generator: Adobe Illustrator 16.0.0, SVG Export Plug-In . SVG Version: 6.00 Build 0)  -->
<!DOCTYPE svg PUBLIC "-//W3C//DTD SVG 1.1//EN" "http://www.w3.org/Graphics/SVG/1.1/DTD/svg11.dtd">
<svg version="1.1" id="Слой_1" xmlns="http://www.w3.org/2000/svg" xmlns:xlink="http://www.w3.org/1999/xlink" x="0px" y="0px"
	 width="25px" height="25px" viewBox="-0.167 0 25 25" enable-background="new -0.167 0 25 25" xml:space="preserve">
<g>
	<path fill="#CF0A2C" d="M5.032,4.995h5.992c0.836,0,1.355,0.68,1.16,1.519L9.395,18.487c-0.198,0.837-1.034,1.519-1.871,1.519
		H1.536c-0.836,0-1.355-0.682-1.161-1.519l2.79-11.974C3.36,5.676,4.197,4.995,5.032,4.995z"/>
	<path fill="#002856" d="M10.523,4.995h6.892c0.837,0,0.459,0.68,0.264,1.519l-2.791,11.974c-0.194,0.837-0.134,1.519-0.972,1.519
		H7.026c-0.837,0-1.354-0.682-1.159-1.519L8.655,6.514C8.854,5.676,9.689,4.995,10.523,4.995z"/>
	<path fill="#007078" d="M17.144,4.995h5.991c0.833,0,1.354,0.68,1.157,1.519l-2.787,11.974c-0.196,0.837-1.035,1.519-1.871,1.519
		h-5.988c-0.839,0-1.359-0.682-1.163-1.519l2.791-11.974C15.468,5.676,16.305,4.995,17.144,4.995z"/>
	<path fill="#FFFFFF" d="M16.142,16.258h0.567l0.16-0.544h-0.562L16.142,16.258z M16.595,14.76l-0.192,0.643
		c0,0,0.211-0.113,0.327-0.144c0.116-0.027,0.292-0.048,0.292-0.048l0.138-0.45L16.595,14.76 M16.877,13.833l-0.19,0.618
		c0,0,0.209-0.094,0.325-0.125c0.116-0.029,0.29-0.042,0.29-0.042l0.134-0.451H16.877 M18.126,13.833l-0.731,2.417h0.197
		l-0.156,0.498h-0.191l-0.048,0.155h-0.694l0.045-0.155h-1.41l0.141-0.459h0.145l0.736-2.456l0.152-0.492h0.703l-0.073,0.25
		c0,0,0.19-0.138,0.369-0.184c0.177-0.044,1.205-0.063,1.205-0.063l-0.149,0.489H18.126"/>
	<path fill="#FFFFFF" d="M18.436,13.344h0.761l0.009,0.28c-0.006,0.05,0.03,0.07,0.121,0.07h0.152l-0.141,0.466H18.93
		c-0.356,0.026-0.488-0.125-0.48-0.296L18.436,13.344z"/>
	<path fill="#FFFFFF" d="M18.537,15.554h-0.721l0.125-0.415h0.82l0.118-0.379h-0.812l0.137-0.467h2.266l-0.14,0.467H19.57
		l-0.12,0.379h0.763l-0.125,0.415h-0.823l-0.145,0.173h0.332l0.082,0.521c0.013,0.053,0.013,0.086,0.029,0.108
		c0.016,0.021,0.116,0.028,0.174,0.028h0.099l-0.151,0.507h-0.258c-0.038,0-0.098-0.001-0.181-0.007
		c-0.075-0.005-0.129-0.05-0.182-0.078c-0.05-0.022-0.118-0.078-0.139-0.176l-0.08-0.521l-0.374,0.511
		c-0.121,0.163-0.279,0.286-0.551,0.286h-0.525l0.142-0.448h0.199c0.056,0,0.104-0.026,0.145-0.048
		c0.036-0.014,0.074-0.032,0.11-0.091L18.537,15.554z"/>
	<path fill="#FFFFFF" d="M10.637,14.417h1.91l-0.14,0.456h-0.763l-0.119,0.387h0.782l-0.142,0.473h-0.782l-0.19,0.631
		c-0.023,0.071,0.187,0.08,0.263,0.08l0.388-0.054l-0.156,0.52h-0.881c-0.07,0-0.122-0.01-0.2-0.028
		c-0.074-0.017-0.106-0.05-0.141-0.101c-0.031-0.05-0.082-0.095-0.046-0.201l0.252-0.838h-0.435l0.144-0.479h0.435l0.116-0.387
		h-0.433L10.637,14.417z"/>
	<path fill="#FFFFFF" d="M11.922,13.596h0.785l-0.142,0.479h-1.069l-0.116,0.102c-0.05,0.048-0.066,0.027-0.132,0.063
		c-0.059,0.028-0.187,0.089-0.351,0.089h-0.343l0.138-0.458h0.104c0.086,0,0.147-0.007,0.177-0.024
		c0.034-0.023,0.073-0.073,0.116-0.152l0.198-0.357h0.777L11.922,13.596z"/>
	<path fill="#FFFFFF" d="M13.425,14.382c0,0,0.213-0.196,0.579-0.258c0.086-0.016,0.604-0.012,0.604-0.012l0.083-0.261h-1.106
		L13.425,14.382z M14.46,14.582h-1.094L13.298,14.8h0.947c0.111-0.011,0.134,0.003,0.146-0.002L14.46,14.582 M13.042,13.344h0.671
		l-0.098,0.336c0,0,0.211-0.169,0.358-0.231c0.145-0.05,0.48-0.101,0.48-0.101l1.081-0.007l-0.369,1.224
		c-0.063,0.211-0.134,0.345-0.178,0.409c-0.044,0.062-0.091,0.116-0.187,0.168c-0.088,0.05-0.174,0.075-0.248,0.085
		c-0.071,0.005-0.182,0.005-0.332,0.008h-1.045l-0.293,0.971c-0.027,0.095-0.041,0.143-0.022,0.169
		c0.015,0.022,0.05,0.047,0.098,0.047l0.459-0.042l-0.155,0.53H12.75c-0.164,0-0.283-0.003-0.366-0.01
		c-0.08-0.007-0.163,0-0.218-0.04c-0.048-0.043-0.12-0.099-0.119-0.158c0.006-0.048,0.029-0.138,0.061-0.256L13.042,13.344"/>
	<path fill="#FFFFFF" d="M14.99,15.32l-0.062,0.293c-0.026,0.093-0.05,0.16-0.12,0.223c-0.072,0.063-0.157,0.126-0.357,0.126
		l-0.372,0.017l-0.004,0.332c-0.004,0.093,0.021,0.084,0.035,0.1c0.017,0.018,0.03,0.024,0.048,0.031l0.118-0.009l0.354-0.022
		l-0.145,0.487h-0.406c-0.286,0-0.497-0.008-0.565-0.061c-0.069-0.044-0.078-0.1-0.078-0.191l0.027-1.298h0.647l-0.007,0.264h0.156
		c0.053,0,0.088-0.004,0.112-0.02c0.018-0.015,0.031-0.033,0.042-0.064l0.066-0.21h0.51V15.32z"/>
	<path fill="#FFFFFF" d="M5.741,8.818c-0.022,0.107-0.438,2.023-0.438,2.024c-0.089,0.391-0.154,0.665-0.376,0.844
		c-0.125,0.104-0.272,0.154-0.442,0.154c-0.274,0-0.433-0.134-0.459-0.391l-0.005-0.09c0,0,0.083-0.52,0.083-0.522
		c0,0,0.437-1.748,0.517-1.979c0.002-0.013,0.004-0.021,0.005-0.027c-0.848,0.006-0.999,0-1.009-0.014
		C3.609,8.837,3.589,8.945,3.589,8.945l-0.446,1.969l-0.038,0.167l-0.075,0.546c0,0.162,0.033,0.293,0.095,0.405
		c0.203,0.355,0.782,0.408,1.11,0.408c0.421,0,0.817-0.089,1.084-0.254c0.465-0.272,0.586-0.702,0.694-1.083l0.05-0.196
		c0,0,0.45-1.814,0.527-2.052c0.001-0.012,0.001-0.02,0.006-0.026C5.982,8.838,5.8,8.832,5.741,8.818z"/>
	<path fill="#FFFFFF" d="M8.229,12.422c-0.3-0.003-0.41-0.003-0.759,0.016l-0.014-0.029c0.029-0.134,0.064-0.265,0.094-0.401
		l0.042-0.184c0.066-0.283,0.129-0.616,0.137-0.718c0.007-0.06,0.028-0.21-0.146-0.21c-0.074,0-0.148,0.035-0.227,0.072
		c-0.042,0.151-0.127,0.578-0.169,0.771c-0.086,0.409-0.091,0.456-0.131,0.658l-0.025,0.028c-0.309-0.003-0.419-0.003-0.775,0.015
		L6.24,12.407c0.058-0.244,0.119-0.487,0.176-0.729c0.15-0.659,0.185-0.912,0.226-1.249l0.03-0.018
		c0.348-0.049,0.432-0.058,0.81-0.135l0.031,0.035l-0.058,0.211c0.066-0.04,0.125-0.077,0.191-0.111
		c0.177-0.086,0.375-0.113,0.485-0.113c0.165,0,0.346,0.045,0.421,0.237c0.071,0.169,0.024,0.38-0.07,0.792l-0.049,0.212
		c-0.096,0.459-0.112,0.542-0.167,0.857L8.229,12.422z"/>
	<path fill="#FFFFFF" d="M9.452,12.422c-0.183,0-0.3-0.003-0.412,0c-0.113,0-0.224,0.007-0.395,0.016l-0.01-0.016l-0.01-0.017
		c0.046-0.175,0.072-0.236,0.094-0.296c0.024-0.062,0.045-0.124,0.085-0.301c0.054-0.231,0.085-0.392,0.107-0.534
		c0.025-0.137,0.038-0.254,0.057-0.387l0.012-0.011l0.015-0.013c0.181-0.025,0.296-0.042,0.413-0.062
		c0.119-0.016,0.238-0.04,0.424-0.075l0.009,0.019l0.004,0.016c-0.034,0.144-0.07,0.285-0.104,0.429
		c-0.032,0.147-0.068,0.289-0.101,0.432c-0.067,0.303-0.095,0.417-0.11,0.498c-0.016,0.078-0.021,0.12-0.045,0.275l-0.018,0.015
		L9.452,12.422z"/>
	<path fill="#FFFFFF" d="M11.369,11.353c-0.015,0.079-0.083,0.367-0.175,0.492c-0.063,0.09-0.141,0.146-0.226,0.146
		c-0.025,0-0.174,0-0.177-0.222c-0.001-0.11,0.021-0.222,0.05-0.343c0.078-0.351,0.172-0.646,0.41-0.646
		C11.438,10.782,11.454,11.002,11.369,11.353z M12.158,11.385c0.106-0.463,0.023-0.679-0.08-0.811
		c-0.156-0.201-0.433-0.265-0.72-0.265c-0.173,0-0.586,0.018-0.906,0.313c-0.229,0.213-0.338,0.503-0.402,0.783
		c-0.065,0.282-0.139,0.792,0.331,0.983c0.144,0.064,0.353,0.082,0.488,0.082c0.343,0,0.695-0.095,0.96-0.375
		C12.033,11.865,12.125,11.524,12.158,11.385"/>
	<path fill="#FFFFFF" d="M19.526,12.455c-0.364-0.002-0.47-0.002-0.805,0.013l-0.021-0.029c0.09-0.344,0.182-0.69,0.263-1.038
		c0.106-0.454,0.13-0.647,0.166-0.913l0.024-0.021c0.361-0.053,0.462-0.068,0.837-0.136l0.013,0.031
		c-0.068,0.285-0.138,0.567-0.203,0.854c-0.137,0.598-0.189,0.901-0.24,1.213L19.526,12.455z"/>
	<path fill="#FFFFFF" d="M18.982,11.393c-0.019,0.074-0.09,0.367-0.181,0.49c-0.062,0.086-0.208,0.142-0.294,0.142
		c-0.023,0-0.171,0-0.177-0.217c-0.003-0.107,0.02-0.219,0.048-0.343c0.083-0.344,0.174-0.637,0.414-0.637
		C18.982,10.827,19.061,11.04,18.982,11.393z M19.697,11.427c0.104-0.46-0.317-0.042-0.384-0.193
		c-0.103-0.236-0.042-0.717-0.46-0.877c-0.159-0.063-0.537,0.018-0.862,0.313c-0.227,0.211-0.338,0.501-0.398,0.778
		c-0.065,0.277-0.144,0.788,0.324,0.971c0.148,0.063,0.282,0.083,0.417,0.076c0.471-0.025,0.828-0.735,1.096-1.015
		C19.631,11.257,19.667,11.563,19.697,11.427"/>
	<path fill="#FFFFFF" d="M14.218,12.422c-0.303-0.003-0.407-0.003-0.761,0.016l-0.013-0.029c0.029-0.134,0.063-0.265,0.096-0.401
		l0.039-0.184c0.068-0.283,0.131-0.616,0.137-0.718c0.009-0.06,0.028-0.21-0.142-0.21c-0.078,0-0.152,0.035-0.23,0.072
		c-0.041,0.151-0.13,0.578-0.171,0.771c-0.084,0.409-0.089,0.456-0.128,0.658l-0.028,0.028c-0.309-0.003-0.416-0.003-0.772,0.015
		l-0.016-0.032c0.058-0.244,0.119-0.487,0.175-0.729c0.15-0.659,0.185-0.912,0.226-1.249l0.027-0.018
		c0.349-0.049,0.436-0.058,0.813-0.135l0.028,0.035l-0.054,0.211c0.063-0.04,0.127-0.077,0.19-0.111
		c0.177-0.086,0.376-0.113,0.483-0.113c0.164,0,0.346,0.045,0.425,0.237c0.069,0.169,0.021,0.38-0.073,0.792l-0.049,0.212
		c-0.097,0.459-0.112,0.542-0.167,0.857L14.218,12.422z"/>
	<path fill="#FFFFFF" d="M16.827,8.815l-0.25,0.002c-0.647,0.008-0.913,0.005-1.018-0.007c-0.009,0.046-0.026,0.132-0.026,0.132
		s-0.235,1.081-0.235,1.082c0,0-0.559,2.299-0.587,2.408c0.573-0.007,0.806-0.007,0.899,0.004c0.024-0.11,0.156-0.752,0.156-0.752
		s0.113-0.47,0.121-0.488c0,0,0.035-0.049,0.072-0.069h0.048c0.494,0,1.044,0,1.479-0.318c0.299-0.219,0.498-0.542,0.591-0.935
		c0.023-0.098,0.039-0.212,0.039-0.326c0-0.151-0.028-0.302-0.116-0.417C17.78,8.823,17.34,8.818,16.827,8.815z M17.155,9.94
		c-0.053,0.241-0.211,0.443-0.409,0.539c-0.166,0.084-0.365,0.089-0.577,0.089h-0.133l0.008-0.054c0,0,0.251-1.079,0.248-1.075
		l0.011-0.056l0.003-0.042l0.1,0.009c0,0,0.513,0.045,0.52,0.046C17.131,9.477,17.212,9.678,17.155,9.94"/>
	<path fill="#FFFFFF" d="M22.5,10.327l-0.026-0.033c-0.371,0.075-0.438,0.086-0.781,0.133l-0.028,0.025
		c0,0.004-0.002,0.011-0.002,0.017v-0.005c-0.255,0.586-0.248,0.459-0.456,0.922c0-0.021,0-0.034-0.003-0.057l-0.05-1l-0.034-0.034
		c-0.387,0.076-0.396,0.087-0.758,0.134l-0.027,0.025c-0.003,0.013-0.003,0.024-0.006,0.04l0.003,0.005
		c0.045,0.229,0.033,0.176,0.081,0.54c0.023,0.18,0.049,0.358,0.071,0.534c0.033,0.294,0.055,0.439,0.097,0.89
		c-0.246,0.4-0.302,0.551-0.535,0.905l0.019,0.033c0.349-0.015,0.43-0.015,0.688-0.015l0.059-0.065
		C21.006,12.895,22.5,10.327,22.5,10.327z"/>
	<path fill="#FFFFFF" d="M9.781,10.574c0.2-0.138,0.225-0.329,0.058-0.429c-0.17-0.1-0.469-0.067-0.67,0.072
		c-0.2,0.136-0.223,0.328-0.055,0.43C9.283,10.745,9.583,10.714,9.781,10.574z"/>
	<path fill="#FFFFFF" d="M20.782,13.355l-0.291,0.502c-0.095,0.169-0.266,0.296-0.538,0.298l-0.467-0.008l0.135-0.451h0.092
		c0.048,0,0.083-0.003,0.109-0.015c0.023-0.008,0.042-0.027,0.06-0.056l0.172-0.271H20.782z"/>
</g>
</svg>
