<?xml version="1.0" encoding="utf-8"?>
<!-- Generator: Adobe Illustrator 16.0.0, SVG Export Plug-In . SVG Version: 6.00 Build 0)  -->
<!DOCTYPE svg PUBLIC "-//W3C//DTD SVG 1.1//EN" "http://www.w3.org/Graphics/SVG/1.1/DTD/svg11.dtd">
<svg version="1.1" id="Слой_1" xmlns="http://www.w3.org/2000/svg" xmlns:xlink="http://www.w3.org/1999/xlink" x="0px" y="0px"
	 width="25px" height="25px" viewBox="0 0 25 25" enable-background="new 0 0 25 25" xml:space="preserve">
<g id="XMLID_328_">
	<rect x="9.254" y="6.67" fill="#FF5F00" width="6.491" height="11.661"/>
	<path id="XMLID_330_" fill="#EB001B" d="M9.668,12.5c0-2.366,1.106-4.472,2.831-5.83c-1.26-0.992-2.853-1.586-4.586-1.586
		C3.819,5.084,0.5,8.406,0.5,12.5c0,4.094,3.319,7.416,7.413,7.416c1.733,0,3.327-0.588,4.586-1.585
		C10.774,16.973,9.668,14.866,9.668,12.5z"/>
	<path fill="#F69E1A" d="M24.5,12.5c0,4.094-3.319,7.416-7.415,7.416c-1.731,0-3.325-0.588-4.586-1.585
		c1.727-1.358,2.833-3.465,2.833-5.833c0-2.364-1.107-4.471-2.833-5.83c1.261-0.992,2.855-1.585,4.586-1.585
		C21.18,5.084,24.5,8.406,24.5,12.5z M23.793,17.098v-0.242h0.095v-0.047h-0.246v0.048h0.098v0.241H23.793L23.793,17.098z
		 M24.269,17.098v-0.291h-0.074l-0.088,0.199l-0.088-0.199h-0.076v0.291h0.055v-0.219l0.077,0.187h0.059l0.078-0.187v0.219H24.269z"
		/>
</g>
</svg>
