<?xml version="1.0" encoding="utf-8"?>
<!-- Generator: Adobe Illustrator 16.0.0, SVG Export Plug-In . SVG Version: 6.00 Build 0)  -->
<!DOCTYPE svg PUBLIC "-//W3C//DTD SVG 1.1//EN" "http://www.w3.org/Graphics/SVG/1.1/DTD/svg11.dtd">
<svg version="1.1" id="Слой_1" xmlns="http://www.w3.org/2000/svg" xmlns:xlink="http://www.w3.org/1999/xlink" x="0px" y="0px"
	 width="25px" height="25px" viewBox="0 0 25 25" enable-background="new 0 0 25 25" xml:space="preserve">
<g>
	<g>
		<path fill="#319B42" d="M13.862,9.829l-1.518,3.286h-0.153V9.116h-2.153v6.769h1.827c0.479,0,0.916-0.278,1.117-0.714l1.518-3.287
			h0.152v3.999h2.154V9.115h-1.828C14.498,9.115,14.063,9.393,13.862,9.829z"/>
		<path fill="#319B42" d="M5.781,10.004l-0.897,3.11H4.73l-0.897-3.11C3.681,9.477,3.199,9.115,2.65,9.115H0.5v6.768h2.153v-3.999
			h0.154l1.231,3.999h1.538l1.231-3.999H6.96v3.999h2.155V9.115H6.963C6.415,9.115,5.934,9.478,5.781,10.004z"/>
		<path fill="#319B42" d="M17.729,12.19v3.692h2.149V13.73h2.311c1.006,0,1.857-0.644,2.174-1.54H17.729z"/>
	</g>
	
		<linearGradient id="SVGID_1_" gradientUnits="userSpaceOnUse" x1="915.2715" y1="261.4883" x2="922.3496" y2="261.4883" gradientTransform="matrix(1 0 0 -1 -897.8496 271.9883)">
		<stop  offset="0" style="stop-color:#00A3E1"/>
		<stop  offset="0.3042" style="stop-color:#009ADD"/>
		<stop  offset="0.7987" style="stop-color:#0082D4"/>
		<stop  offset="1" style="stop-color:#0076CF"/>
	</linearGradient>
	<path fill="url(#SVGID_1_)" d="M22.189,9.115h-4.768c0.289,1.575,1.668,2.769,3.325,2.769h3.706
		c0.031-0.147,0.047-0.303,0.047-0.461C24.497,10.147,23.464,9.115,22.189,9.115z"/>
</g>
</svg>
