<?xml version="1.0" encoding="utf-8"?>
<!-- Generator: Adobe Illustrator 16.0.0, SVG Export Plug-In . SVG Version: 6.00 Build 0)  -->
<!DOCTYPE svg PUBLIC "-//W3C//DTD SVG 1.1//EN" "http://www.w3.org/Graphics/SVG/1.1/DTD/svg11.dtd">
<svg version="1.1" id="Слой_1" xmlns="http://www.w3.org/2000/svg" xmlns:xlink="http://www.w3.org/1999/xlink" x="0px" y="0px"
	 width="25px" height="25px" viewBox="0 0 25 25" enable-background="new 0 0 25 25" xml:space="preserve">
<g id="XMLID_12_">
	<rect x="9.252" y="6.671" fill="#7573C0" width="6.49" height="11.66"/>
	<path id="XMLID_16_" fill="#EB001B" d="M9.666,12.5c0-2.368,1.109-4.475,2.833-5.832c-1.263-0.996-2.854-1.585-4.584-1.585
		C3.818,5.083,0.5,8.404,0.5,12.5c0,4.094,3.318,7.416,7.415,7.416c1.73,0,3.321-0.593,4.584-1.586
		C10.773,16.973,9.666,14.866,9.666,12.5z"/>
	<path fill="#02A0DF" d="M23.791,17.098v-0.242h0.095v-0.049h-0.244v0.049h0.098v0.242H23.791z M24.267,17.098v-0.291H24.19
		l-0.086,0.198l-0.088-0.198h-0.074v0.291h0.053v-0.221l0.082,0.188h0.054l0.083-0.188v0.221H24.267z"/>
	<path fill="#02A0DF" d="M24.5,12.5c0,4.094-3.322,7.416-7.417,7.416c-1.729,0-3.323-0.593-4.585-1.586
		c1.726-1.357,2.834-3.464,2.834-5.83c0-2.368-1.106-4.475-2.833-5.832c1.262-0.996,2.855-1.585,4.584-1.585
		C21.178,5.083,24.5,8.404,24.5,12.5z"/>
</g>
</svg>
