<?xml version="1.0" encoding="utf-8"?>
<!-- Generator: Adobe Illustrator 16.0.0, SVG Export Plug-In . SVG Version: 6.00 Build 0)  -->
<!DOCTYPE svg PUBLIC "-//W3C//DTD SVG 1.1//EN" "http://www.w3.org/Graphics/SVG/1.1/DTD/svg11.dtd">
<svg version="1.1" id="Слой_1" xmlns="http://www.w3.org/2000/svg" xmlns:xlink="http://www.w3.org/1999/xlink" x="0px" y="0px"
	 width="25px" height="25px" viewBox="0 0 25 25" enable-background="new 0 0 25 25" xml:space="preserve">
<linearGradient id="SVGID_1_" gradientUnits="userSpaceOnUse" x1="898.3496" y1="259.4883" x2="922.3496" y2="259.4883" gradientTransform="matrix(1 0 0 -1 -897.8496 271.9883)">
	<stop  offset="0" style="stop-color:#2C2958"/>
	<stop  offset="1" style="stop-color:#373491"/>
</linearGradient>
<path fill="url(#SVGID_1_)" d="M16.236,8.562H16.2c-1.92,0-3.274,1.032-3.285,2.514c-0.011,1.103,0.97,1.711,1.704,2.08l0,0
	c0.755,0.373,1.012,0.61,1.011,0.943l0,0c-0.009,0.511-0.608,0.743-1.167,0.743l0,0c-0.776,0-1.187-0.111-1.826-0.397l0,0
	l-0.25-0.118l-0.274,1.704c0.456,0.218,1.292,0.397,2.167,0.407l0,0c2.039,0,3.365-1.021,3.382-2.605l0,0
	c0.008-0.869-0.508-1.531-1.633-2.073l0,0c-0.678-0.353-1.1-0.587-1.095-0.95l0,0c0.002-0.314,0.355-0.654,1.119-0.654l0,0
	c0.637-0.015,1.093,0.135,1.457,0.293l0,0l0.175,0.087l0.261-1.658C17.565,8.729,16.973,8.566,16.236,8.562L16.236,8.562z
	 M21.427,8.7h1.502l1.571,7.631h-1.805l0,0c0,0-0.179-0.875-0.235-1.145l0,0c-0.285,0-2.264-0.005-2.484-0.005l0,0
	c-0.079,0.207-0.415,1.149-0.415,1.149H17.52l2.883-6.997l0,0C20.61,8.841,20.96,8.7,21.427,8.7L21.427,8.7z M21.561,10.76
	c-0.094,0.279-0.261,0.733-0.256,0.733l0,0l0,0l0,0c0,0-0.61,1.691-0.771,2.14h1.613l0,0c-0.08-0.39-0.45-2.208-0.45-2.208
	L21.561,10.76L21.561,10.76z M10.166,8.7l-1.217,7.631h1.945L12.111,8.7H10.166L10.166,8.7z M7.319,8.7h2.06l-3.062,7.62H4.262
	l-1.74-6.66l0,0l-0.001,0l0,0l-0.003,0l0,0C1.927,9.304,1.252,9.024,0.5,8.83l0.016-0.131h3.137l0,0
	c0.424,0.015,0.763,0.157,0.881,0.644l0.68,3.502v0.001l0.205,1.055L7.319,8.7z"/>
</svg>
