<svg xmlns="http://www.w3.org/2000/svg" xmlns:xlink="http://www.w3.org/1999/xlink" width="208.67" height="18" viewBox="0 0 208.67 18">
  <defs>
    <style>
      .a {
        fill: url(#a);
      }

      .b {
        fill: #7573c0;
      }

      .c {
        fill: #eb001b;
      }

      .d {
        fill: #02a0df;
      }

      .e {
        fill: #ff5f00;
      }

      .f {
        fill: #f69e1a;
      }

      .g {
        fill: #006848;
      }

      .h {
        fill: url(#b);
      }

      .i {
        fill: #e21836;
      }

      .j {
        fill: #00447c;
      }

      .k {
        fill: #007b84;
      }

      .l {
        fill: #fefefe;
      }
    </style>
    <linearGradient id="a" data-name="Безымянный градиент" x1="38.04" y1="-451.67" x2="49.35" y2="-451.67" gradientTransform="matrix(3.25, 0, 0, -3.25, -44.75, -1452.67)" gradientUnits="userSpaceOnUse">
      <stop offset="0" stop-color="#2c2958"/>
      <stop offset="1" stop-color="#373491"/>
    </linearGradient>
    <linearGradient id="b" data-name="Безымянный градиент 2" x1="62.13" y1="-622.41" x2="65.95" y2="-622.41" gradientTransform="translate(-44.75 2033.93) scale(3.25)" gradientUnits="userSpaceOnUse">
      <stop offset="0.01" stop-color="#00afff"/>
      <stop offset="1" stop-color="#1f5bd7"/>
    </linearGradient>
  </defs>
  <title>cards4</title>
  <path class="a" d="M102.91,9h0c-3,0-5.06,1.55-5.06,3.84,0,1.69,1.49,2.63,2.63,3.17h0c1.15.54,1.55.94,1.55,1.42h0c0,.81-.94,1.14-1.75,1.14h0a6.52,6.52,0,0,1-2.83-.6h0L97,17.76l-.4,2.63a8.17,8.17,0,0,0,3.3.61h0c3.1,0,5.13-1.55,5.19-4h0c0-1.35-.8-2.36-2.49-3.17h0c-1-.54-1.68-.87-1.68-1.48h0c0-.47.54-1,1.68-1h0a4.92,4.92,0,0,1,2.22.47h0l.27.14.41-2.57a8,8,0,0,0-2.63-.4Zm8,.2h2.29l2.42,11.66h-2.76s-.27-1.34-.34-1.75h-3.77c-.14.34-.61,1.75-.61,1.75H105l4.45-10.71h0a1.26,1.26,0,0,1,1.42-1Zm.2,3.17c-.14.41-.41,1.15-.41,1.15h0l-1.21,3.3h2.49c-.13-.61-.67-3.37-.67-3.37l-.2-1.08ZM93.67,9.2,91.79,20.86h3L96.64,9.2Zm-4.38,0h3.17L87.74,20.86H84.57L81.88,10.69h0A13.15,13.15,0,0,0,78.77,9.4V9.2h4.79a1.24,1.24,0,0,1,1.35,1l1,5.4h0l.34,1.61Z" transform="translate(-1 -6)"/>
  <g>
    <rect class="b" x="49.03" y="1.91" width="7.84" height="14.18"/>
    <path class="c" d="M50.53,15a8.72,8.72,0,0,1,3.42-7A8.76,8.76,0,0,0,48.42,6a9,9,0,0,0-9,9,8.86,8.86,0,0,0,9,9.05A8.76,8.76,0,0,0,54,22.09,9.07,9.07,0,0,1,50.53,15Z" transform="translate(-1 -6)"/>
    <path class="d" d="M67.63,20.58v-.3h.1v-.1h-.2v.1h.1v.3Zm.6,0v-.3h-.1l-.1.2-.1-.2h-.1v.3h.1v-.3l.1.2h.1l.1-.2v.3Z" transform="translate(-1 -6)"/>
    <path class="d" d="M68.53,15A9,9,0,0,1,59.48,24,8.76,8.76,0,0,1,54,22.09a8.87,8.87,0,0,0,3.42-7A8.74,8.74,0,0,0,54,8a8.49,8.49,0,0,1,5.53-2A9,9,0,0,1,68.53,15Z" transform="translate(-1 -6)"/>
  </g>
  <g>
    <rect class="e" x="10.62" y="1.92" width="7.89" height="14.26"/>
    <path class="c" d="M12.12,15a8.79,8.79,0,0,1,3.44-7.08A8.86,8.86,0,0,0,10,6a9,9,0,0,0,0,18,8.86,8.86,0,0,0,5.56-1.92A8.93,8.93,0,0,1,12.12,15Z" transform="translate(-1 -6)"/>
    <path class="f" d="M30.22,15a9,9,0,0,1-9,9,8.86,8.86,0,0,1-5.56-1.92A8.91,8.91,0,0,0,19.1,15a8.76,8.76,0,0,0-3.44-7.08A8.86,8.86,0,0,1,21.22,6,9,9,0,0,1,30.22,15Zm-.91,5.56v-.3h.1v-.1h-.3v.1h.1l.1.3Zm.61,0v-.3h-.1l-.1.2-.1-.2h-.1v.3h.1v-.3l.1.2h.1l.1-.2v.3Z" transform="translate(-1 -6)"/>
  </g>
  <g>
    <path class="g" d="M157.31,14.73V21h3.8V17.47H165a4.71,4.71,0,0,0,4.4-2.74Z" transform="translate(-1 -6)"/>
    <path class="h" d="M168.17,10.13A4.28,4.28,0,0,0,165.31,9h-8.2a4.25,4.25,0,0,0,.13.93.23.23,0,0,0,.07.2v.07a5.38,5.38,0,0,0,5.06,3.73h7.07a2.55,2.55,0,0,0,.07-.73A4.09,4.09,0,0,0,168.17,10.13Z" transform="translate(-1 -6)"/>
    <path class="g" d="M150.51,10.33l-2.67,5.8h-.27V9.07h-3.8V21H147a2.19,2.19,0,0,0,2-1.27l2.67-5.8h.27V21h3.8V9.07h-3.2a2.18,2.18,0,0,0-2,1.26" transform="translate(-1 -6)"/>
    <path class="g" d="M132.84,10.6l1.6,5.47h.27l1.6-5.47A2.19,2.19,0,0,1,138.37,9h3.8V21h-3.8V13.93h-.26L135.91,21h-2.67L131,13.93h-.27V21H127V9.07h3.8a2.09,2.09,0,0,1,2.07,1.53" transform="translate(-1 -6)"/>
  </g>
  <g>
    <path class="i" d="M186.53,6h7.18a1.41,1.41,0,0,1,1.4,1.82l-3.35,14.36A2.45,2.45,0,0,1,189.52,24h-7.18a1.4,1.4,0,0,1-1.4-1.82l3.35-14.36A2.44,2.44,0,0,1,186.53,6" transform="translate(-1 -6)"/>
    <path class="j" d="M193.12,6h8.26c1,0,.55.82.31,1.82l-3.34,14.36c-.24,1-.16,1.82-1.17,1.82h-8.26a1.4,1.4,0,0,1-1.39-1.82l3.34-14.36A2.45,2.45,0,0,1,193.12,6" transform="translate(-1 -6)"/>
    <path class="k" d="M201.05,6h7.18a1.4,1.4,0,0,1,1.39,1.82l-3.34,14.36A2.45,2.45,0,0,1,204,24h-7.18a1.4,1.4,0,0,1-1.39-1.82l3.35-14.36A2.43,2.43,0,0,1,201.05,6" transform="translate(-1 -6)"/>
    <path class="l" d="M188.41,10.6a6.29,6.29,0,0,1-1,0L186.85,13a1.59,1.59,0,0,1-.45,1,.77.77,0,0,1-.53.19.49.49,0,0,1-.55-.47v-.11l.1-.63s.52-2.09.61-2.37v0a6.38,6.38,0,0,1-1.21,0s0,.16,0,.16l-.54,2.36,0,.2-.09.65a1,1,0,0,0,.11.49c.25.42.94.49,1.33.49a2.53,2.53,0,0,0,1.3-.31,1.92,1.92,0,0,0,.84-1.3l.06-.23s.54-2.18.63-2.46A0,0,0,0,1,188.41,10.6Zm1.83,1.76a1.46,1.46,0,0,0-.58.13l-.23.13.07-.25,0,0c-.45.09-.55.1-1,.16l0,0a11.22,11.22,0,0,1-.28,1.49c-.06.29-.13.59-.2.88v0c.43,0,.56,0,.93,0l0,0,.16-.78c0-.24.15-.75.2-.93a.83.83,0,0,1,.28-.09c.2,0,.18.19.17.26a8.59,8.59,0,0,1-.16.86l0,.22-.12.48,0,0c.42,0,.55,0,.91,0l0,0,.2-1,.06-.25a1.8,1.8,0,0,0,.09-.95A.49.49,0,0,0,190.24,12.36Zm2,.51-.51.1-.5.07h0l0,0c0,.16,0,.3-.07.46a5.15,5.15,0,0,1-.13.64,2.36,2.36,0,0,1-.1.36,2,2,0,0,0-.11.36v0h1l0,0,0,0c0-.18,0-.23,0-.33s.05-.23.14-.6c0-.17.08-.34.12-.51l.12-.52v0Zm0-.69a.81.81,0,0,0-.8.08c-.24.16-.27.39-.06.52a.82.82,0,0,0,.79-.09C192.46,12.52,192.49,12.29,192.29,12.18ZM193.53,15a1.52,1.52,0,0,0,1.15-.45,1.94,1.94,0,0,0,.39-.85,1.08,1.08,0,0,0-.09-1,1.07,1.07,0,0,0-.87-.32,1.56,1.56,0,0,0-1.08.38,1.75,1.75,0,0,0-.49.94c-.07.34-.16,1,.4,1.18A1.73,1.73,0,0,0,193.53,15Zm0-1.25c.1-.42.21-.77.5-.77s.24.26.14.68a1.92,1.92,0,0,1-.21.59.36.36,0,0,1-.27.18s-.21,0-.21-.27A1.53,1.53,0,0,1,193.49,13.71Zm2.61,1.2,0,0c0-.24.05-.29.15-.78.05-.24.16-.75.21-.93a.72.72,0,0,1,.27-.09c.21,0,.18.19.17.26a6.39,6.39,0,0,1-.16.86l-.05.22c0,.16-.08.32-.11.48v0c.43,0,.55,0,.91,0l.05,0c.06-.37.08-.47.19-1l.06-.25a1.8,1.8,0,0,0,.09-.95.5.5,0,0,0-.51-.28,1.46,1.46,0,0,0-.58.13l-.23.13.07-.25,0,0c-.45.09-.55.1-1,.16l0,0a12.57,12.57,0,0,1-.27,1.49l-.21.88,0,0C195.6,14.9,195.73,14.9,196.1,14.91Zm3.11,0c0-.13.19-.9.19-.9s.14-.56.14-.58a.39.39,0,0,1,.09-.08h.06a2.84,2.84,0,0,0,1.77-.39,1.87,1.87,0,0,0,.71-1.12,2.18,2.18,0,0,0,.05-.39.86.86,0,0,0-.14-.5c-.27-.37-.8-.37-1.41-.38h-1.52l0,.15-.28,1.3-.7,2.89Zm.52-2.3.3-1.29v-.12l.12,0,.63,0a.51.51,0,0,1,.27.65.94.94,0,0,1-.49.65,1.54,1.54,0,0,1-.69.11h-.16Zm1.85,1.12c-.08.33-.16.94.4,1.16a1,1,0,0,0,.5.09.76.76,0,0,0,.47-.22.83.83,0,0,1,0,.15l0,0c.4,0,.53,0,1,0l0,0c.07-.37.13-.73.29-1.45.08-.35.16-.68.25-1l0,0-1,.16,0,0s0,.06,0,.1a.58.58,0,0,0-.31-.26,1.21,1.21,0,0,0-1,.37A1.84,1.84,0,0,0,201.58,13.74Zm.95,0c.1-.42.21-.77.49-.77s.28.17.26.46c0,.07,0,.14-.05.23l-.09.36a.75.75,0,0,1-.11.22.51.51,0,0,1-.35.17s-.2,0-.21-.26A2,2,0,0,1,202.53,13.76Zm4.94-1.37,0,0a9.26,9.26,0,0,1-.94.16l0,0v0h0c-.3.7-.29.55-.54,1.1v-.07l-.06-1.2,0,0a8.76,8.76,0,0,1-.91.16l0,0a.09.09,0,0,1,0,.05h0a5.93,5.93,0,0,1,.09.65l.09.63.12,1.07c-.3.48-.36.66-.64,1.08h0l-.2.31a.16.16,0,0,1-.07.07H204l-.16.55h.56a.68.68,0,0,0,.64-.36l.35-.6h0l0,0C205.68,15.47,207.47,12.39,207.47,12.39Zm-5.89,7.11h-.23l.87-2.9h.29l.1-.3v.33c0,.21.14.39.57.36h.49l.17-.56h-.19c-.1,0-.15,0-.14-.08V16h-.91a12.92,12.92,0,0,0-1.35.08,1.48,1.48,0,0,0-.44.22l.09-.3h-.85l-.18.59L199,19.54h-.17l-.17.56h1.69l-.05.18h.83l.06-.18h.23Zm-.69-2.31c-.13,0-.39.15-.39.15l.23-.74h.67l-.16.54A1.91,1.91,0,0,0,200.89,17.19Zm0,1.06s-.21,0-.35.05-.39.18-.39.18l.23-.77h.68Zm-.38,1.25h-.67l.19-.65h.68Zm1.64-1.79h1l-.14.45h-1l-.15.5h.87l-.66.92a.22.22,0,0,1-.13.11.48.48,0,0,1-.18,0h-.24l-.16.54H202a.75.75,0,0,0,.66-.34l.45-.61.1.62a.25.25,0,0,0,.16.21.46.46,0,0,0,.21.1h.53l.19-.61h-.13a.5.5,0,0,1-.2,0s0-.06,0-.13l-.09-.62h-.4l.17-.21h1l.15-.5h-.91l.14-.45h.91l.17-.56h-2.72Zm-8.25,1.92.23-.76h.94l.17-.56h-.94l.14-.47h.92l.17-.54h-2.29l-.17.54h.52l-.14.47h-.52l-.17.57h.52l-.3,1c-.05.13,0,.18,0,.24a.25.25,0,0,0,.17.12l.24,0h1.06l.18-.62-.46.06C194.14,19.72,193.89,19.71,193.91,19.63ZM194,16l-.24.43a.48.48,0,0,1-.13.18.51.51,0,0,1-.21,0h-.13l-.16.55h.41a.89.89,0,0,0,.42-.11c.08,0,.1,0,.16-.07l.14-.12h1.28l.17-.58h-.94L195,16Zm1.89,3.64s0-.09,0-.2l.35-1.16h1.65a1.05,1.05,0,0,0,.3-.1.64.64,0,0,0,.22-.21,1.61,1.61,0,0,0,.21-.48l.45-1.47h-1.3a3.55,3.55,0,0,0-.57.13,2.39,2.39,0,0,0-.44.27l.12-.4h-.8L195,19.72a2.82,2.82,0,0,0-.07.32c0,.06.09.13.14.18a.55.55,0,0,0,.26.05h1.06l.18-.63-.55.05A.16.16,0,0,1,195.91,19.64Zm.61-2.15h1.31l-.08.26s0,0-.17,0h-1.14Zm.26-.87h1.33l-.1.31h-.72a1.5,1.5,0,0,0-.7.32Zm1,2a.16.16,0,0,1-.05.08.26.26,0,0,1-.14,0h-.19l0-.31h-.78l0,1.55c0,.11,0,.18.09.23a1.63,1.63,0,0,0,.67.07h.49l.18-.58-.43,0h-.14l-.05,0s0,0,0-.12v-.4l.45,0a.6.6,0,0,0,.43-.15.54.54,0,0,0,.14-.27l.08-.35h-.61Z" transform="translate(-1 -6)"/>
  </g>
</svg>
