<?xml version="1.0" encoding="utf-8"?>
<!-- Generator: Adobe Illustrator 21.0.2, SVG Export Plug-In . SVG Version: 6.00 Build 0)  -->
<svg version="1.1" id="Слой_1" xmlns="http://www.w3.org/2000/svg" xmlns:xlink="http://www.w3.org/1999/xlink" x="0px" y="0px"
	 viewBox="0 0 246.2 34.9" style="enable-background:new 0 0 246.2 34.9;" xml:space="preserve">
<style type="text/css">
	.st0{fill:url(#SVGID_1_);}
	.st1{fill:#7573C0;}
	.st2{fill:#EB001B;}
	.st3{fill:#02A0DF;}
	.st4{fill:none;}
	.st5{fill:#FF5F00;}
	.st6{fill:#F69E1A;}
	.st7{fill:#006848;}
	.st8{fill:url(#SVGID_2_);}
</style>
<linearGradient id="SVGID_1_" gradientUnits="userSpaceOnUse" x1="108.6947" y1="17.989" x2="163.2113" y2="17.989" gradientTransform="matrix(1 0 0 -1 0 36)">
	<stop  offset="0" style="stop-color:#2C2958"/>
	<stop  offset="1" style="stop-color:#373491"/>
</linearGradient>
<path class="st0" d="M144.4,9.1L144.4,9.1c-4.4,0-7.5,2.3-7.5,5.7c0,2.5,2.2,3.9,3.9,4.7l0,0c1.7,0.8,2.3,1.4,2.3,2.1l0,0
	c0,1.2-1.4,1.7-2.6,1.7l0,0c-1.8,0-2.7-0.3-4.2-0.9l0,0l-0.6-0.3l-0.6,3.9c1,0.5,2.9,0.9,4.9,0.9l0,0c4.6,0,7.6-2.3,7.7-5.9l0,0
	c0-2-1.2-3.5-3.7-4.7l0,0c-1.5-0.8-2.5-1.3-2.5-2.2l0,0c0-0.7,0.8-1.5,2.5-1.5l0,0c1.4,0,2.5,0.3,3.3,0.7l0,0l0.4,0.2l0.6-3.8
	C147.5,9.4,146.1,9.1,144.4,9.1L144.4,9.1z M156.2,9.4h3.4l3.6,17.3h-4.1l0,0c0,0-0.4-2-0.5-2.6l0,0c-0.6,0-5.1,0-5.6,0l0,0
	c-0.2,0.5-0.9,2.6-0.9,2.6h-4.6l6.6-15.9l0,0C154.4,9.7,155.2,9.4,156.2,9.4L156.2,9.4z M156.5,14.1c-0.2,0.6-0.6,1.7-0.6,1.7l0,0
	l0,0l0,0c0,0-1.4,3.8-1.8,4.9h3.7l0,0c-0.2-0.9-1-5-1-5L156.5,14.1L156.5,14.1z M130.7,9.4l-2.8,17.3h4.4l2.8-17.3H130.7L130.7,9.4z
	 M124.2,9.4h4.7l-7,17.3h-4.7l-4-15.1l0,0l0,0l0,0l0,0l0,0c-1.3-0.8-2.9-1.4-4.6-1.9l0-0.3h7.1l0,0c1,0,1.7,0.4,2,1.5l1.5,8v0
	l0.5,2.4L124.2,9.4z"/>
<g id="XMLID_12_">
	<rect x="70.6" y="11" class="st1" width="7.8" height="14.1"/>
	<path id="XMLID_16_" class="st2" d="M71.1,18c0-2.9,1.3-5.4,3.4-7C73,9.8,71.1,9.1,69,9.1c-4.9,0-8.9,4-8.9,8.9C60,23,64,27,69,27
		c2.1,0,4-0.7,5.5-1.9C72.4,23.4,71.1,20.9,71.1,18z"/>
	<path class="st3" d="M88.1,23.6v-0.3h0.1v-0.1H88v0.1h0.1L88.1,23.6L88.1,23.6z M88.7,23.6v-0.3h-0.1l-0.1,0.2l-0.1-0.2h-0.1v0.3
		h0.1v-0.3l0.1,0.2h0.1l0.1-0.2L88.7,23.6L88.7,23.6z"/>
	<path class="st3" d="M89,18C89,23,85,27,80,27c-2.1,0-4-0.7-5.5-1.9c2.1-1.6,3.4-4.2,3.4-7c0-2.9-1.3-5.4-3.4-7
		C76,9.8,78,9.1,80,9.1C85,9.1,89,13.1,89,18z"/>
</g>
<rect x="69.4" y="13.7" class="st4" width="25.8" height="21.2"/>
<g id="XMLID_328_">
	<rect x="19.9" y="11.1" class="st5" width="7.8" height="14.1"/>
	<path id="XMLID_330_" class="st2" d="M20.4,18.1c0-2.9,1.3-5.4,3.4-7c-1.5-1.2-3.4-1.9-5.5-1.9c-4.9,0-8.9,4-8.9,8.9
		c0,4.9,4,8.9,8.9,8.9c2.1,0,4-0.7,5.5-1.9C21.7,23.5,20.4,20.9,20.4,18.1z"/>
	<path class="st6" d="M38.3,18.1c0,4.9-4,8.9-8.9,8.9c-2.1,0-4-0.7-5.5-1.9c2.1-1.6,3.4-4.2,3.4-7c0-2.9-1.3-5.4-3.4-7
		c1.5-1.2,3.4-1.9,5.5-1.9C34.2,9.1,38.3,13.2,38.3,18.1z M37.4,23.6v-0.3h0.1v-0.1h-0.3v0.1h0.1L37.4,23.6L37.4,23.6z M38,23.6
		v-0.3h-0.1l-0.1,0.2l-0.1-0.2h-0.1v0.3h0.1v-0.3l0.1,0.2h0.1l0.1-0.2L38,23.6L38,23.6z"/>
</g>
<g>
	<path class="st7" d="M224.1,17.6V27h5.7v-5.3h5.8c3,0,5.6-1.7,6.6-4.1H224.1z"/>
	<linearGradient id="SVGID_2_" gradientUnits="userSpaceOnUse" x1="223.8301" y1="12.7723" x2="242.4491" y2="12.7723">
		<stop  offset="5.376344e-03" style="stop-color:#00AFFF"/>
		<stop  offset="1" style="stop-color:#1F5BD7"/>
	</linearGradient>
	<path class="st8" d="M240.4,10.7c-1.1-1-2.6-1.7-4.3-1.7h-12.3c0,0.5,0.1,0.9,0.2,1.4c0,0.1,0,0.2,0.1,0.3c0,0,0,0.1,0,0.1
		c1,3.2,4.1,5.6,7.6,5.6h10.6c0.1-0.4,0.1-0.7,0.1-1.1C242.4,13.5,241.7,11.9,240.4,10.7z"/>
	<path class="st7" d="M213.9,11l-4,8.7h-0.4V9.1h-5.7V27h4.8c1.3,0,2.4-0.7,3-1.9l4-8.7h0.4V27h5.7V9.1h-4.8
		C215.6,9.1,214.5,9.8,213.9,11"/>
	<path class="st7" d="M187.4,11.4l2.4,8.2h0.4l2.4-8.2c0.4-1.4,1.7-2.4,3.1-2.4h5.7V27h-5.7V16.4h-0.4L192,27H188l-3.3-10.6h-0.4V27
		h-5.7V9.1h5.7C185.8,9.1,187,10,187.4,11.4"/>
</g>
</svg>
