<?xml version="1.0" encoding="utf-8"?>
<!-- Generator: Adobe Illustrator 23.1.0, SVG Export Plug-In . SVG Version: 6.00 Build 0)  -->
<svg version="1.1" id="Слой_1" xmlns="http://www.w3.org/2000/svg" xmlns:xlink="http://www.w3.org/1999/xlink" x="0px" y="0px"
	 width="295.8px" height="30px" viewBox="0 0 295.8 30" style="enable-background:new 0 0 295.8 30;" xml:space="preserve">
<style type="text/css">
	.st0{fill:url(#SVGID_1_);}
	.st1{fill:#7573C0;}
	.st2{fill:#EB001B;}
	.st3{fill:#02A0DF;}
	.st4{fill:#FF5F00;}
	.st5{fill:#F69E1A;}
	.st6{fill:#006848;}
	.st7{fill:url(#SVGID_2_);}
	.st8{fill:#CA1D24;}
	.st9{fill:#1F3365;}
	.st10{fill:#3C6A65;}
	.st11{fill:#FFFFFF;}
</style>
<linearGradient id="SVGID_1_" gradientUnits="userSpaceOnUse" x1="73.9385" y1="-451.6747" x2="90.9048" y2="-451.6747" gradientTransform="matrix(3.2494 0 0 -3.2494 -141.3038 -1452.6716)">
	<stop  offset="0" style="stop-color:#2C2958"/>
	<stop  offset="1" style="stop-color:#373491"/>
</linearGradient>
<path class="st0" d="M135.1,6L135.1,6c-4.4,0-7.6,2.3-7.6,5.8c0,2.5,2.2,3.9,3.9,4.8l0,0c1.7,0.8,2.3,1.4,2.3,2.1l0,0
	c0,1.2-1.4,1.7-2.6,1.7l0,0c-1.8,0-2.7-0.3-4.2-0.9l0,0l-0.6-0.3l-0.6,3.9c1,0.5,2.9,0.9,5,0.9l0,0c4.7,0,7.7-2.3,7.8-6l0,0
	c0-2-1.2-3.5-3.7-4.8l0,0c-1.5-0.8-2.5-1.3-2.5-2.2l0,0c0-0.7,0.8-1.5,2.5-1.5l0,0c1.4,0,2.5,0.3,3.3,0.7l0,0l0.4,0.2l0.6-3.8
	C138.2,6.3,136.8,6,135.1,6L135.1,6z M147,6.3h3.4l3.6,17.5h-4.1l0,0c0,0-0.4-2-0.5-2.6l0,0c-0.6,0-5.2,0-5.7,0l0,0
	c-0.2,0.5-0.9,2.6-0.9,2.6h-4.7l6.7-16.1l0,0C145.2,6.6,146,6.3,147,6.3L147,6.3z M147.3,11.1c-0.2,0.6-0.6,1.7-0.6,1.7l0,0l0,0l0,0
	c0,0-1.4,3.8-1.8,5h3.7l0,0c-0.2-0.9-1-5.1-1-5.1L147.3,11.1L147.3,11.1z M121.2,6.3l-2.8,17.5h4.4l2.8-17.5H121.2L121.2,6.3z
	 M114.6,6.3h4.8l-7.1,17.5h-4.8l-4-15.3l0,0l0,0l0,0l0,0l0,0c-1.3-0.8-2.9-1.4-4.7-1.9V6.3h7.2l0,0c1,0,1.7,0.4,2,1.5l1.5,8.1l0,0
	l0.5,2.4L114.6,6.3z"/>
<g id="XMLID_12_">
	<rect x="60.2" y="7.1" class="st1" width="8.7" height="15.8"/>
	<path id="XMLID_16_" class="st2" d="M60.8,14.9c0-3.2,1.5-6,3.8-7.8C62.9,5.8,60.8,5,58.4,5c-5.5,0-9.9,4.5-9.9,9.9
		C48.4,20.5,52.8,25,58.4,25c2.3,0,4.5-0.8,6.1-2.1C62.2,21,60.8,18.2,60.8,14.9z"/>
	<path class="st3" d="M79.8,21.2v-0.3h0.1v-0.1h-0.2v0.1h0.1L79.8,21.2L79.8,21.2z M80.4,21.2v-0.3h-0.1l-0.1,0.2l-0.1-0.2H80v0.3
		h0.1v-0.3l0.1,0.2h0.1l0.1-0.2V21.2L80.4,21.2z"/>
	<path class="st3" d="M80.8,14.9c0,5.6-4.5,10.1-10.1,10.1c-2.3,0-4.5-0.8-6.1-2.1c2.3-1.8,3.8-4.7,3.8-7.8c0-3.2-1.5-6-3.8-7.8
		C66.2,5.8,68.5,5,70.7,5C76.3,5,80.8,9.5,80.8,14.9z"/>
</g>
<g id="XMLID_328_">
	<rect x="12.8" y="7.1" class="st4" width="8.8" height="15.8"/>
	<path id="XMLID_330_" class="st2" d="M13.4,15c0-3.3,1.5-6.1,3.8-7.9C15.5,5.8,13.4,5,11,5C5.5,5,1,9.5,1,15s4.5,10,10,10
		c2.4,0,4.5-0.8,6.2-2.1C14.8,21.1,13.4,18.1,13.4,15z"/>
	<path class="st5" d="M33.5,15c0,5.5-4.5,10-10,10c-2.4,0-4.5-0.8-6.2-2.1c2.4-1.8,3.8-4.7,3.8-7.9c0-3.3-1.5-6.1-3.8-7.9
		C19,5.8,21.1,5,23.5,5C28.9,4.9,33.5,9.5,33.5,15z M32.5,21.2v-0.3h0.1v-0.1h-0.3v0.1h0.1L32.5,21.2L32.5,21.2z M33.1,21.2v-0.3H33
		l-0.1,0.2l-0.1-0.2h-0.1v0.3h0.1v-0.3l0.1,0.2H33l0.1-0.2V21.2L33.1,21.2z"/>
</g>
<g>
	<path class="st6" d="M221.1,14.6V24h5.7v-5.3h5.8c3,0,5.6-1.7,6.6-4.1H221.1z"/>
	
		<linearGradient id="SVGID_2_" gradientUnits="userSpaceOnUse" x1="111.4443" y1="-622.9535" x2="117.1744" y2="-622.9535" gradientTransform="matrix(3.2494 0 0 3.2494 -141.3038 2033.9255)">
		<stop  offset="5.400000e-03" style="stop-color:#00AFFF"/>
		<stop  offset="1" style="stop-color:#1F5BD7"/>
	</linearGradient>
	<path class="st7" d="M237.4,7.7c-1.1-1-2.6-1.7-4.3-1.7h-12.3c0,0.5,0.1,0.9,0.2,1.4c0,0.1,0,0.2,0.1,0.3v0.1
		c1,3.2,4.1,5.6,7.6,5.6h10.6c0.1-0.4,0.1-0.7,0.1-1.1C239.4,10.5,238.7,8.9,237.4,7.7z"/>
	<path class="st6" d="M210.9,8l-4,8.7h-0.4V6.1h-5.7V24h4.8c1.3,0,2.4-0.7,3-1.9l4-8.7h0.4V24h5.7V6.1h-4.8
		C212.6,6.1,211.5,6.8,210.9,8"/>
	<path class="st6" d="M184.4,8.4l2.4,8.2h0.4l2.4-8.2C190,7,191.3,6,192.7,6h5.7v18h-5.7V13.4h-0.4L189,24h-4l-3.3-10.6h-0.4V24
		h-5.7V6.1h5.7C182.8,6.1,184,7,184.4,8.4"/>
</g>
<g id="XMLID_57_">
	<path id="XMLID_73_" class="st8" d="M264.7,3.9h8.8c1.2,0,2,1,1.7,2.2l-4.1,17.5c-0.3,1.2-1.5,2.2-2.7,2.2h-8.8c-1.2,0-2-1-1.7-2.2
		L262,6.1C262.3,4.9,263.5,3.9,264.7,3.9"/>
	<path id="XMLID_72_" class="st9" d="M272.8,3.9h10.1c1.2,0,0.7,1,0.4,2.2l-4.1,17.5c-0.3,1.2-0.2,2.2-1.4,2.2h-10.1
		c-1.2,0-2-1-1.7-2.2L270,6.1C270.3,4.9,271.6,3.9,272.8,3.9"/>
	<path id="XMLID_71_" class="st10" d="M282.5,3.9h8.8c1.2,0,2,1,1.7,2.2l-4.1,17.5c-0.3,1.2-1.5,2.2-2.7,2.2h-8.8
		c-1.2,0-2-1-1.7-2.2l4.1-17.5C280,4.9,281.3,3.9,282.5,3.9"/>
	<path id="XMLID_58_" class="st11" d="M266.4,10.7c-0.9,0-1.2,0-1.3,0c0,0.2-0.7,3.1-0.7,3.1c-0.1,0.6-0.2,1-0.6,1.3
		c-0.2,0.2-0.4,0.2-0.7,0.2c-0.4,0-0.7-0.2-0.7-0.6l0-0.1c0,0,0.1-0.8,0.1-0.8c0,0,0.7-2.7,0.8-3c0,0,0,0,0,0c-1.3,0-1.5,0-1.6,0
		c0,0,0,0.2,0,0.2l-0.7,3l-0.1,0.3l-0.1,0.8c0,0.2,0,0.4,0.1,0.6c0.3,0.5,1.2,0.6,1.7,0.6c0.6,0,1.2-0.1,1.7-0.4
		c0.7-0.4,0.9-1.1,1.1-1.7l0.1-0.3C265.5,13.9,266.2,11.1,266.4,10.7C266.4,10.7,266.4,10.7,266.4,10.7 M268.7,13
		c-0.2,0-0.5,0-0.7,0.2c-0.1,0.1-0.2,0.1-0.3,0.2l0.1-0.3l0-0.1c-0.6,0.1-0.7,0.1-1.2,0.2l0,0c-0.1,0.5-0.1,0.9-0.3,1.9
		c-0.1,0.4-0.2,0.7-0.3,1.1l0,0c0.6,0,0.7,0,1.2,0l0,0c0.1-0.3,0.1-0.4,0.2-1c0.1-0.3,0.2-1,0.3-1.2c0.1-0.1,0.2-0.1,0.3-0.1
		c0.3,0,0.2,0.2,0.2,0.3c0,0.2-0.1,0.7-0.2,1.1l-0.1,0.3c0,0.2-0.1,0.4-0.1,0.6l0,0c0.5,0,0.7,0,1.2,0l0.1,0
		c0.1-0.5,0.1-0.6,0.3-1.3l0.1-0.3c0.1-0.6,0.2-1,0.1-1.2C269.2,13,269,13,268.7,13 M271.3,13.6c-0.3,0.1-0.5,0.1-0.6,0.1
		c-0.2,0-0.4,0.1-0.6,0.1l0,0l0,0c0,0.2,0,0.4-0.1,0.6c0,0.2-0.1,0.5-0.2,0.8c-0.1,0.3-0.1,0.4-0.1,0.5c0,0.1-0.1,0.2-0.1,0.5l0,0
		l0,0c0.3,0,0.4,0,0.6,0c0.2,0,0.4,0,0.6,0l0,0l0,0c0-0.2,0-0.3,0.1-0.4c0-0.1,0.1-0.3,0.2-0.8c0-0.2,0.1-0.4,0.2-0.7
		C271.2,14.1,271.3,13.9,271.3,13.6L271.3,13.6L271.3,13.6z M273.7,13c-0.3,0-0.9,0-1.4,0.5c-0.4,0.3-0.5,0.8-0.6,1.2
		c-0.1,0.4-0.2,1.2,0.5,1.5c0.2,0.1,0.5,0.1,0.7,0.1c0.5,0,1.1-0.1,1.5-0.6c0.3-0.3,0.5-0.9,0.5-1.1c0.2-0.7,0-1-0.1-1.2
		C274.5,13.1,274.1,13,273.7,13 M273.7,14.6c0,0.1-0.1,0.6-0.3,0.8c-0.1,0.1-0.2,0.2-0.3,0.2c0,0-0.3,0-0.3-0.3c0-0.2,0-0.3,0.1-0.5
		c0.1-0.5,0.3-1,0.6-1C273.8,13.7,273.8,14,273.7,14.6 M286.2,16.2c0.1-0.5,0.2-0.9,0.4-1.9c0.1-0.4,0.2-0.9,0.3-1.3l0,0
		c-0.6,0.1-0.7,0.1-1.3,0.2l0,0c0,0,0,0.1,0,0.1c-0.1-0.1-0.2-0.3-0.4-0.3c-0.2-0.1-0.8,0-1.3,0.5c-0.3,0.3-0.5,0.8-0.6,1.2
		c-0.1,0.4-0.2,1.2,0.5,1.5c0.2,0.1,0.4,0.1,0.6,0.1c0.2,0,0.4-0.1,0.6-0.3c0,0.1,0,0.1-0.1,0.2l0,0
		C285.5,16.3,285.6,16.3,286.2,16.2L286.2,16.2z M285.4,14.4c0,0.1,0,0.2-0.1,0.3c0,0.2-0.1,0.3-0.1,0.5c0,0.1-0.1,0.2-0.1,0.3
		c-0.1,0.1-0.3,0.2-0.5,0.2c0,0-0.3,0-0.3-0.3c0-0.2,0-0.3,0.1-0.5c0.1-0.5,0.3-1,0.6-1C285.3,13.8,285.4,14,285.4,14.4 M277.9,13
		c-0.2,0-0.5,0-0.7,0.2c-0.1,0.1-0.2,0.1-0.3,0.2l0.1-0.3l0-0.1c-0.6,0.1-0.7,0.1-1.2,0.2l0,0c-0.1,0.5-0.1,0.9-0.3,1.9
		c-0.1,0.4-0.2,0.7-0.3,1.1l0,0c0.5,0,0.7,0,1.2,0l0,0c0.1-0.3,0.1-0.4,0.2-1c0.1-0.3,0.2-1,0.3-1.2c0.1-0.1,0.2-0.1,0.4-0.1
		c0.3,0,0.2,0.2,0.2,0.3c0,0.2-0.1,0.7-0.2,1.1l-0.1,0.3c-0.1,0.2-0.1,0.4-0.1,0.6l0,0c0.5,0,0.7,0,1.2,0l0.1,0
		c0.1-0.5,0.1-0.6,0.3-1.3l0.1-0.3c0.1-0.6,0.2-1,0.1-1.2C278.4,13,278.1,13,277.9,13 M284,12.3c0-0.1,0.1-0.3,0.1-0.5
		c0-0.2,0-0.5-0.2-0.6c-0.3-0.5-1-0.5-1.8-0.5l-0.4,0c-1,0-1.4,0-1.6,0c0,0.1,0,0.2,0,0.2l-0.4,1.7c0,0-0.9,3.5-0.9,3.7
		c0.9,0,1.2,0,1.4,0c0-0.2,0.2-1.2,0.2-1.2s0.2-0.7,0.2-0.7c0,0,0.1-0.1,0.1-0.1h0.1c0.7,0,1.6,0,2.3-0.5
		C283.5,13.4,283.8,12.9,284,12.3 M282.5,12.4c-0.1,0.4-0.3,0.7-0.6,0.8c-0.3,0.1-0.6,0.1-0.9,0.1h-0.2l0-0.1c0,0,0.4-1.7,0.4-1.7
		l0-0.1l0-0.1l0.2,0c0,0,0.8,0.1,0.8,0.1C282.5,11.7,282.6,12,282.5,12.4 M290.7,13L290.7,13c-0.6,0.1-0.7,0.1-1.2,0.2l0,0
		c0,0,0,0,0,0l0,0c-0.4,0.9-0.4,0.7-0.7,1.4c0,0,0-0.1,0-0.1l-0.1-1.5l0-0.1c-0.6,0.1-0.6,0.1-1.2,0.2l0,0c0,0,0,0,0,0.1l0,0
		c0.1,0.4,0.1,0.3,0.1,0.8c0,0.3,0.1,0.5,0.1,0.8c0.1,0.5,0.1,0.7,0.2,1.4c-0.4,0.6-0.5,0.8-0.8,1.4l0,0l-0.3,0.4
		c0,0-0.1,0.1-0.1,0.1c0,0-0.1,0-0.2,0h-0.1l-0.2,0.7l0.7,0c0.4,0,0.7-0.2,0.8-0.5l0.4-0.8h0l0-0.1C288.4,16.9,290.7,13,290.7,13
		 M271.3,12.7c-0.3-0.2-0.7-0.1-1,0.1c-0.3,0.2-0.3,0.5-0.1,0.7c0.3,0.2,0.7,0.1,1-0.1C271.5,13.2,271.6,12.9,271.3,12.7"/>
</g>
</svg>
