<?xml version="1.0" encoding="utf-8"?>
<!-- Generator: Adobe Illustrator 16.0.0, SVG Export Plug-In . SVG Version: 6.00 Build 0)  -->
<!DOCTYPE svg PUBLIC "-//W3C//DTD SVG 1.1//EN" "http://www.w3.org/Graphics/SVG/1.1/DTD/svg11.dtd">
<svg version="1.1" id="Layer_1" xmlns="http://www.w3.org/2000/svg" xmlns:xlink="http://www.w3.org/1999/xlink" x="0px" y="0px"
	 width="18.1px" height="11px" viewBox="90.95 744.5 18.1 11" enable-background="new 90.95 744.5 18.1 11" xml:space="preserve">
<g>
	<rect x="91.43" y="745" fill="#FFFFFF" width="17.141" height="10"/>
	<polygon fill="#BD0034" points="102.906,748.614 108.57,745.44 108.57,745 108.18,745 101.721,748.614 	"/>
	<polygon fill="#BD0034" points="102.639,751.584 108.57,754.902 108.57,754.239 103.823,751.584 	"/>
	<polygon fill="#BD0034" points="91.43,745.759 96.501,748.614 97.69,748.614 91.43,745.093 	"/>
	<polygon fill="#BD0034" points="97.419,751.584 91.43,754.938 91.43,755 92.512,755 98.607,751.584 	"/>
	<polygon fill="#1A237B" points="107.398,745 101.396,745 101.396,748.36 	"/>
	<polygon fill="#1A237B" points="98.745,745 92.77,745 98.745,748.36 	"/>
	<polygon fill="#1A237B" points="108.57,748.614 108.57,746.317 104.499,748.614 	"/>
	<polygon fill="#1A237B" points="108.57,753.851 108.57,751.584 104.499,751.584 	"/>
	<polygon fill="#1A237B" points="93.107,755 98.745,755 98.745,751.836 	"/>
	<polygon fill="#1A237B" points="101.396,755 107.051,755 101.396,751.836 	"/>
	<polygon fill="#1A237B" points="91.43,751.584 91.43,753.955 95.642,751.584 	"/>
	<polygon fill="#1A237B" points="91.43,748.614 95.642,748.614 91.43,746.237 	"/>
	<polygon fill="#BD0034" points="99.277,745 99.277,749.207 91.43,749.207 91.43,750.988 99.277,750.988 99.277,755 100.867,755 
		100.867,750.988 108.57,750.988 108.57,749.207 100.867,749.207 100.867,745 	"/>
</g>
</svg>
