<svg xmlns="http://www.w3.org/2000/svg" width="178.48" height="40" viewBox="0 0 178.48 40">
  <defs>
    <style>
      .a {
        fill: #fff;
      }
    </style>
  </defs>
  <title>mirpay_logo</title>
  <g>
    <g>
      <path class="a" d="M108.27,10h11.78c7.15,0,12.06,3.66,12.06,9.92V20c0,6.81-5.89,10.34-12.66,10.34h-8.76V42.45h-2.41V10Zm11.32,18.13c6,0,10.1-3.15,10.1-8v-.09c0-5.15-4-7.84-9.83-7.84h-9.18V28.13h8.91Z" transform="translate(-3.36 -10)"/>
      <path class="a" d="M135.06,35.59V35.5c0-4.91,4.21-7.69,10.34-7.69a28.57,28.57,0,0,1,7.83,1v-1c0-4.77-2.92-7.24-7.79-7.24a15.9,15.9,0,0,0-7.42,1.9l-.83-2a18.9,18.9,0,0,1,8.4-2c3.25,0,5.74.87,7.46,2.59a9,9,0,0,1,2.41,6.68V42.45h-2.23V38.51a10.76,10.76,0,0,1-9,4.49c-4.5,0-9.15-2.51-9.15-7.42m18.23-2V30.9a31.39,31.39,0,0,0-8-1.07c-5,0-7.79,2.23-7.79,5.51v.09c0,3.43,3.26,5.43,6.87,5.43,4.83,0,9-3,9-7.28" transform="translate(-3.36 -10)"/>
      <path class="a" d="M179.33,18.81h2.51L171.59,43.28c-2.09,5-4.49,6.72-7.89,6.72A10.54,10.54,0,0,1,159,49l.78-2a8.32,8.32,0,0,0,4,.89c2.47,0,4.09-1.44,5.85-5.57L158.33,18.79H161l9.83,21.15,8.53-21.15Z" transform="translate(-3.36 -10)"/>
    </g>
    <g>
      <g>
        <path class="a" d="M95.87,25.33H63.31V42.26H73.64V32.72H78l5.84,9.54H95.58l-6.9-10.34a12.08,12.08,0,0,0,7.19-6.61" transform="translate(-3.36 -10)"/>
        <path class="a" d="M92.53,13a11.32,11.32,0,0,0-7.67-3H62.65A14.86,14.86,0,0,0,63,12.52a4.26,4.26,0,0,0,.15.54c0,.08,0,.15,0,.22A14.44,14.44,0,0,0,77,23.37H96.05a11,11,0,0,0,.19-2A11.32,11.32,0,0,0,92.55,13" transform="translate(-3.36 -10)"/>
      </g>
      <path class="a" d="M28.53,14.24,24.26,29.07h-.73L19.26,14.24A5.89,5.89,0,0,0,13.61,10H3.36V42.27H13.63V23.2h.73l5.86,19.07h7.33L33.42,23.2h.73V42.27H44.41V10H34.16a5.89,5.89,0,0,0-5.64,4.24" transform="translate(-3.36 -10)"/>
      <rect class="a" x="45.47" width="10.27" height="32.27"/>
    </g>
  </g>
</svg>
