<svg xmlns="http://www.w3.org/2000/svg" width="108.83" height="46" viewBox="0 0 108.83 46">
  <defs>
    <style>
      .a {
        fill: #4d4f53;
      }

      .b {
        fill: #55ed00;
      }
    </style>
  </defs>
  <title>oos2_pscb-logo</title>
  <g>
    <path class="a" d="M78.93,42.31V31.78h1.73v4.27h1.59a1.8,1.8,0,0,0,1.83-1.57l.7-2.69h1.66l-.71,2.94a2.71,2.71,0,0,1-1.51,2A2.32,2.32,0,0,1,86,38.63l1,3.68H85.25L84.35,39c-.28-1-.62-1.61-2.17-1.61H80.66v4.92Z" transform="translate(-3.85 -1.81)"/>
    <path class="a" d="M26.48,7.21l-9.32-5.4v5.5a18.16,18.16,0,0,0-3,33.86l1.81-5a12.9,12.9,0,0,1,1.23-23.33v20Z" transform="translate(-3.85 -1.81)"/>
    <path class="b" d="M17.53,42.41l9.32,5.4v-5.5a18.16,18.16,0,0,0,3-33.86l-1.81,5a12.89,12.89,0,0,1-1.23,23.32V16.82Z" transform="translate(-3.85 -1.81)"/>
    <path class="a" d="M47.42,31.76h6.63V33H49.16v3h2.38a3.74,3.74,0,0,1,2.64.84,2.86,2.86,0,0,1,.9,2.22,3.05,3.05,0,0,1-3.29,3.25H47.42Zm1.74,5.46v3.87h2.17a1.77,1.77,0,0,0,2-2c0-1.72-1.23-1.88-2.13-1.88Z" transform="translate(-3.85 -1.81)"/>
    <path class="a" d="M63.86,42.31c-.15-.43-.67-2.16-.82-2.6H59l-.81,2.6H56.46c.63-1.89,3-8.91,3.54-10.55h2.2l3.46,10.55ZM61.09,33.1H61l-1.6,5.35h3.24Z" transform="translate(-3.85 -1.81)"/>
    <path class="a" d="M77.26,20.2a7.09,7.09,0,0,1-2.9.72,4.29,4.29,0,0,1,0-8.58A5.31,5.31,0,0,1,77,13l1.39-3.79a10,10,0,0,0-5-1.1,8.52,8.52,0,1,0,0,17A11.61,11.61,0,0,0,78.64,24Z" transform="translate(-3.85 -1.81)"/>
    <path class="a" d="M94.23,19.2a4.38,4.38,0,0,0-3.65-3.07,4.36,4.36,0,0,0,3.1-3c.43-1.16,1.71-4.69,1.71-4.69H90.14l-1.3,3.71c-.53,1.49-1,2.13-2.92,2.13V8.45H80.64V24.81h5.28V18.32c2.21,0,2.75.19,3.35,1.75l1.66,4.74h5.25Z" transform="translate(-3.85 -1.81)"/>
    <path class="a" d="M106.35,14.31H103.5V12.39h8.17V8.45H98.23V24.81h8.59c3.78,0,5.86-1.91,5.86-5.46S110.55,14.31,106.35,14.31Zm-.6,6.6H103.5v-3h2.13c1,0,1.78.24,1.78,1.4S106.7,20.91,105.75,20.91Z" transform="translate(-3.85 -1.81)"/>
    <polygon class="a" points="53.6 23 53.6 10.92 48.84 10.92 48.84 23 43.58 23 43.58 6.64 58.89 6.64 58.89 23 53.6 23"/>
    <polygon class="a" points="70.29 29.97 70.29 34.3 65.75 34.3 65.75 29.97 63.99 29.97 63.99 40.5 65.75 40.5 65.75 35.62 70.29 35.62 70.29 40.5 72.06 40.5 72.06 29.97 70.29 29.97"/>
  </g>
</svg>
