<?xml version="1.0" encoding="utf-8"?>
<!-- Generator: Adobe Illustrator 23.1.0, SVG Export Plug-In . SVG Version: 6.00 Build 0)  -->
<svg version="1.1" id="Слой_1" xmlns="http://www.w3.org/2000/svg" xmlns:xlink="http://www.w3.org/1999/xlink" x="0px" y="0px"
	 width="103.2px" height="46px" viewBox="0 0 103.2 46" style="enable-background:new 0 0 103.2 46;" xml:space="preserve">
<style type="text/css">
	.st0{fill:#4D4F53;}
	.st1{fill:#55ED00;}
</style>
<g>
	<path class="st0" d="M75.2,40.7V30.2h1.7v4.3h1.6c1.2,0,1.6-0.8,1.8-1.6l0.7-2.7h1.7L82,33.1c-0.1,0.6-0.6,1.6-1.5,2
		c1.3,0.3,1.6,1.2,1.8,1.9l1,3.7h-1.7l-0.9-3.3c-0.3-1-0.6-1.6-2.2-1.6h-1.5v4.9H75.2z"/>
	<path class="st0" d="M59.5,40.7c-0.1-0.4-0.7-2.2-0.8-2.6h-4l-0.8,2.6h-1.8c0.6-1.9,3-8.9,3.5-10.5h2.2l3.5,10.5H59.5z M56.7,31.5
		L56.7,31.5c-0.1,0-1.7,5.3-1.7,5.4h3.2L56.7,31.5z"/>
	<path class="st0" d="M21.9,5.6l-9.3-5.4v5.5C4.9,7.8-0.8,14.9-0.8,23.2c0,7.2,4.2,13.4,10.3,16.4l1.8-5c-4.1-2.2-6.8-6.4-6.8-11.4
		c0-5.4,3.3-10,8-11.9l0,19.9L21.9,5.6z"/>
	<path class="st1" d="M12.9,40.8l9.3,5.4v-5.5c7.7-2.1,13.3-9.1,13.3-17.5c0-7.2-4.2-13.4-10.3-16.4l-1.8,5
		c4.1,2.2,6.8,6.4,6.8,11.4c0,5.4-3.3,10-8,11.9l0-19.9L12.9,40.8z"/>
	<path class="st0" d="M48.8,35.2c0.3,0.1,1.6,0.7,1.6,2.5c0,1.8-1.3,3-3.1,3h-4.5V30.2H47c1.9,0,3.2,0.9,3.2,2.8
		C50.2,34.4,49.1,35,48.8,35.2L48.8,35.2z M48.4,33.1c0-1.5-1.2-1.6-1.9-1.6h-2v3.2h2C47.1,34.7,48.4,34.5,48.4,33.1z M48.7,37.7
		c0-1.4-1.2-1.8-1.9-1.8h-2.2v3.6h2.2C47.4,39.5,48.7,39.3,48.7,37.7z"/>
	<path class="st0" d="M70.4,38.1v-7.9H72v10.5h-1.7l-5.1-8.1c0,0,0,0,0,0c0,0,0,0,0,0v8h-1.7V30.2h1.8L70.4,38.1L70.4,38.1z"/>
	<path class="st0" d="M63.9,11.7c0-0.5,0.6-0.9,2.2-0.9c1.4,0,2.3,0.1,3.9,0.6l1.1-4c-1.8-0.7-3.6-0.9-5.5-0.9
		c-4.9,0-6.9,2.2-6.9,5.2c0,5.6,8.1,4.9,8.1,6.4c0,0.7-0.8,1.1-2.5,1.1c-1.4,0-2.6-0.2-4.8-0.9l-1.2,4c1.7,0.8,4.4,1.2,6.5,1.2
		c4.5,0,7.2-1.7,7.2-5.4C72,12.3,63.9,13.4,63.9,11.7z"/>
	<path class="st0" d="M85.9,18.6c-0.8,0.4-2,0.7-2.9,0.7c-2.4,0-4.3-1.9-4.3-4.3c0-2.4,1.9-4.3,4.3-4.3c1,0,1.8,0.2,2.6,0.7L87,7.6
		c-1.6-0.9-3.2-1.1-5-1.1c-4.7,0-8.5,3.8-8.5,8.5s3.8,8.5,8.5,8.5c1.8,0,3.8-0.4,5.3-1.2L85.9,18.6z"/>
	<path class="st0" d="M51.4,6.9h-8.6v16.3h5.2v-4.6h2.9c4.2,0,6.3-2.3,6.3-5.8C57.3,9.3,55.2,6.9,51.4,6.9z M50.2,14.8h-2.2v-4.1
		h2.3c1,0,1.7,0.8,1.7,2C52,13.9,51.3,14.8,50.2,14.8z"/>
	<path class="st0" d="M101.2,14.5c1.4-0.6,2.2-1.8,2.2-3.4c0-2.9-1.9-4.3-5.9-4.3l-8.1,0v16.3h8c4.3,0,6.5-1.5,6.5-4.8
		C104,16.4,102.9,15,101.2,14.5z M94.8,10.5h1.8c1.1,0,1.6,0.5,1.6,1.4c0,0.9-0.5,1.5-1.6,1.5h-1.9V10.5z M97,19.6h-2.2v-3H97
		c1.1,0,1.7,0.6,1.7,1.5C98.6,19,98.1,19.6,97,19.6z"/>
</g>
</svg>
