<?xml version="1.0" encoding="utf-8"?>
<!-- Generator: Adobe Illustrator 23.1.0, SVG Export Plug-In . SVG Version: 6.00 Build 0)  -->
<svg version="1.1" id="Слой_1" xmlns="http://www.w3.org/2000/svg" xmlns:xlink="http://www.w3.org/1999/xlink" x="0px" y="0px"
	 width="300px" height="25px" viewBox="0 0 300 25" style="enable-background:new 0 0 300 25;" xml:space="preserve">
<style type="text/css">
	.st0{fill:#006848;}
	.st1{fill:none;stroke:#006848;stroke-width:0.5;stroke-miterlimit:10;}
	.st2{fill:#FFFFFF;}
	.st3{fill:#006D69;}
	.st4{fill:#00716D;}
	.st5{fill:#47A141;}
	.st6{fill:#1A1F71;}
	.st7{fill:#DF5F16;}
	.st8{fill:#C90120;}
	.st9{fill:#E19D2F;}
</style>
<g>
	<path class="st0" d="M191.7,4.2c-1.8-1.7-4.3-2.8-7-2.8h-21.8c0.1,0.8,0.2,1.5,0.3,2.3c0.1,0.2,0.1,0.3,0.2,0.5
		c0,0.1,0,0.2,0.1,0.2c1.7,5.4,6.7,9.2,12.6,9.2h18.9c0.1-0.6,0.2-1.2,0.2-1.8C195.1,8.8,193.8,6,191.7,4.2z"/>
	<path class="st1" d="M209.1,15c-1.8-1.7-4.3-2.8-7-2.8h-21.8c0.1,0.8,0.2,1.5,0.3,2.3c0.1,0.2,0.1,0.3,0.2,0.5c0,0.1,0,0.2,0.1,0.2
		c1.7,5.4,6.7,9.2,12.6,9.2h18.9c0.1-0.6,0.2-1.2,0.2-1.8C212.5,19.7,211.1,16.9,209.1,15z"/>
	<g>
		<path class="st2" d="M186,7.4h-4.1v0.2v1.8l0,0h1.3V8.4h0.5l0.8,1.2h1.5l-0.9-1.3C185.5,8.1,185.8,7.8,186,7.4z"/>
		<path class="st2" d="M185.5,5.9c-0.2-0.2-0.6-0.4-0.9-0.4h-2.8c0,0.1,0,0.2,0.1,0.3v0.1l0,0c0.2,0.8,0.9,1.2,1.7,1.2h2.4
			c0-0.1,0-0.2,0-0.2C186,6.5,185.8,6.2,185.5,5.9z"/>
		<path class="st2" d="M177.5,6L177,7.9h-0.1L176.4,6c-0.1-0.3-0.4-0.5-0.7-0.5h-1.3v4h1.3V7.2h0.1l0.8,2.4h0.9l0.8-2.4h0.1v2.4h1.3
			V5.5h-1.3C177.9,5.5,177.6,5.7,177.5,6"/>
		<rect x="180.1" y="5.5" class="st2" width="1.3" height="4.1"/>
	</g>
	<g>
		<path class="st0" d="M189.2,16.4h0.3l1.9,4.1h-0.3l-0.5-1.2h-2.5l-0.5,1.2h-0.3L189.2,16.4z M190.5,19l-1.1-2.4l-1.1,2.4H190.5z"
			/>
		<path class="st0" d="M191.7,19L191.7,19c0-0.8,0.7-1.5,1.5-1.5c0.5,0,0.9,0.2,1.2,0.5l-0.2,0.2c-0.2-0.2-0.5-0.5-1-0.5
			c-0.7,0-1.2,0.5-1.2,1.3l0,0c0,0.7,0.5,1.3,1.2,1.3c0.4,0,0.8-0.2,1-0.5l0.2,0.2c-0.3,0.3-0.7,0.6-1.2,0.6
			C192.4,20.5,191.7,19.8,191.7,19z"/>
		<path class="st0" d="M194.8,19L194.8,19c0-0.8,0.7-1.5,1.5-1.5c0.5,0,0.9,0.2,1.2,0.5l-0.2,0.2c-0.2-0.2-0.5-0.5-1-0.5
			c-0.7,0-1.2,0.5-1.2,1.3l0,0c0,0.7,0.5,1.3,1.2,1.3c0.4,0,0.8-0.2,1-0.5l0.2,0.2c-0.3,0.3-0.7,0.6-1.2,0.6
			C195.5,20.5,194.8,19.8,194.8,19z"/>
		<path class="st0" d="M197.8,19L197.8,19c0-0.8,0.6-1.5,1.4-1.5c0.8,0,1.4,0.7,1.4,1.5c0,0.1,0,0.1,0,0.2h-2.5
			c0.1,0.8,0.6,1.2,1.2,1.2c0.5,0,0.8-0.2,1-0.5l0.2,0.2c-0.3,0.3-0.7,0.5-1.2,0.5C198.5,20.5,197.8,19.9,197.8,19z M200.3,18.8
			c-0.1-0.6-0.4-1.2-1.1-1.2c-0.6,0-1.1,0.5-1.1,1.2H200.3z"/>
		<path class="st0" d="M201.3,17.4h0.3v0.7c0.2-0.4,0.6-0.8,1.2-0.8c0.7,0,1.5,0.5,1.5,1.5l0,0c0,1-0.7,1.5-1.5,1.5
			c-0.6,0-1-0.3-1.2-0.7v1.5h-0.3V17.4z M203.9,19L203.9,19c0-0.8-0.5-1.3-1.2-1.3s-1.2,0.5-1.2,1.3l0,0c0,0.8,0.6,1.3,1.2,1.3
			C203.4,20.2,203.9,19.7,203.9,19z"/>
		<path class="st0" d="M205,19.7v-1.9h-0.5v-0.2h0.5v-0.9h0.3v0.9h1.1v0.2h-1.1v1.9c0,0.5,0.2,0.5,0.6,0.5c0.2,0,0.2,0,0.5-0.1v0.2
			c-0.2,0.1-0.3,0.1-0.5,0.1C205.4,20.5,205,20.2,205,19.7z"/>
	</g>
</g>
<g>
	<path class="st3" d="M273.7,15.3c-1.8,0.6-3.7,1.2-5.6,1.8c0-0.2,0-0.3,0-0.4c0-2.8,0-5.7,0-8.5c0-0.4,0-0.4-0.4-0.4
		c-1,0-1.9,0-2.9,0c-0.2,0-0.3,0.1-0.3,0.3c0,2.9,0,5.8,0,8.7c0,0.2,0.1,0.3,0.3,0.3c1,0,2,0,3,0c-0.1,0-0.2,0.1-0.2,0.1
		c-6.9,2.2-13.9,4.4-20.7,6.5c-0.2,0.1-0.2,0.1-0.3-0.1c-0.8-2.2-1.6-4.3-2.4-6.5c0.2,0,0.2,0,0.4,0c0.9,0,1.9,0,2.8,0
		c0.3,0,0.3-0.1,0.3-0.3c0-0.7,0-1.4,0-2.1c0-0.3,0.1-0.4,0.4-0.4c1,0,2-0.1,3-0.4c0.9-0.3,1.7-0.8,2.1-1.8c0.6-1.5,0-3-1.5-3.7
		c-0.8-0.4-1.7-0.5-2.6-0.6c-1.5,0-3.1,0-4.6,0c-0.3,0-0.2,0.2-0.2,0.4c0,2.8,0,5.5,0,8.4c0,0.1,0,0.2,0,0.3h-0.1
		c-1.8-4.9-3.5-9.7-5.3-14.6c0.6,0,1.2-0.1,1.8-0.1c5-0.3,10-0.5,14.9-0.8c3.9-0.2,7.7-0.5,11.6-0.7c0.2,0,0.3,0.1,0.4,0.2
		c1.5,3.4,3,6.8,4.5,10.2c0.5,1.2,1.2,2.5,1.7,3.8C273.5,15.1,273.6,15.2,273.7,15.3L273.7,15.3z M262.8,10.6c0-0.2,0-0.2,0-0.3
		c0-0.6,0-1.2,0-1.9c0-0.2-0.1-0.3-0.3-0.4c-1.1-0.4-2.2-0.4-3.2-0.3c-1,0.1-2,0.3-2.9,0.8c-1.7,0.9-2.6,2.2-2.5,4.2
		c0.1,1.9,1.1,3.3,2.8,4c2,0.8,4.1,0.8,6.2,0.2c0.2-0.1,0.2-0.2,0.2-0.3c0-0.6,0-1.2,0-1.9c0-0.1,0-0.2,0-0.2
		c-0.5,0.2-0.9,0.3-1.4,0.4c-0.8,0.2-1.7,0.2-2.5-0.2c-1.1-0.4-1.6-1.4-1.5-2.5c0.1-1.2,0.8-2,1.9-2.2c1-0.2,2,0,2.9,0.5
		C262.6,10.5,262.7,10.5,262.8,10.6L262.8,10.6z M268.4,4.9c0-1.2-0.8-2.1-2.2-2.1c-1.3,0-2.2,0.8-2.2,2.1s0.8,2,2.2,2
		C267.5,7,268.4,6.1,268.4,4.9L268.4,4.9z"/>
	<path class="st3" d="M248,12.3c-0.1,0-0.2,0-0.2,0c-0.2,0-0.2-0.1-0.2-0.2c0-0.6,0-1.3,0-1.9c0-0.2,0-0.2,0.2-0.2
		c0.4,0.1,0.8,0.1,1.2,0.2c0.5,0.2,0.7,0.5,0.7,0.9c0,0.5-0.2,0.9-0.6,1.1C248.7,12.2,248.4,12.2,248,12.3L248,12.3L248,12.3z"/>
	<path class="st4" d="M278.4,4.1h3.2c0.6,0,1.2,0.1,1.5,0.2c0.4,0.2,0.7,0.4,1,0.8c0.2,0.3,0.5,0.7,0.5,1.1c0.1,0.5,0.2,0.8,0.2,1.3
		c0,0.8-0.1,1.3-0.2,1.7s-0.4,0.8-0.7,1c-0.3,0.3-0.6,0.5-1,0.5c-0.5,0.2-0.9,0.2-1.3,0.2h-3.2V4.1L278.4,4.1L278.4,4.1z M280.5,5.7
		v3.8h0.5c0.5,0,0.8-0.1,1-0.2c0.2-0.1,0.3-0.3,0.5-0.5c0.1-0.2,0.2-0.6,0.2-1.2c0-0.8-0.2-1.2-0.4-1.5c-0.2-0.3-0.6-0.4-1.2-0.4
		L280.5,5.7L280.5,5.7z"/>
	<path class="st4" d="M285.5,8.8l2.1-0.2c0.1,0.3,0.2,0.6,0.3,0.8c0.2,0.3,0.5,0.5,0.9,0.5c0.3,0,0.5-0.1,0.7-0.2
		c0.2-0.2,0.2-0.3,0.2-0.5c0-0.2-0.1-0.3-0.2-0.5c-0.2-0.2-0.5-0.3-1.1-0.4c-0.9-0.2-1.6-0.5-2-0.8c-0.4-0.4-0.6-0.8-0.6-1.3
		c0-0.4,0.1-0.7,0.3-1c0.2-0.3,0.5-0.5,0.9-0.8c0.4-0.2,1-0.3,1.7-0.3c0.8,0,1.5,0.2,2,0.5s0.8,0.8,0.8,1.5l-2,0.2
		c-0.1-0.3-0.2-0.5-0.3-0.7c-0.2-0.2-0.4-0.2-0.7-0.2c-0.2,0-0.5,0.1-0.5,0.2c-0.2,0.1-0.2,0.2-0.2,0.4c0,0.1,0.1,0.2,0.2,0.3
		c0.1,0.1,0.3,0.2,0.7,0.2c0.9,0.2,1.6,0.4,2,0.6c0.4,0.2,0.7,0.5,0.8,0.8c0.2,0.3,0.3,0.6,0.3,1c0,0.5-0.2,0.8-0.4,1.2
		s-0.6,0.7-1,0.8c-0.5,0.2-1,0.3-1.7,0.3c-1.2,0-2-0.2-2.5-0.7C285.8,10.1,285.6,9.5,285.5,8.8L285.5,8.8z"/>
	<path class="st4" d="M292.5,8.8l2.1-0.2c0.1,0.3,0.2,0.6,0.3,0.8c0.2,0.3,0.5,0.5,0.9,0.5c0.3,0,0.5-0.1,0.7-0.2
		c0.2-0.2,0.2-0.3,0.2-0.5c0-0.2-0.1-0.3-0.2-0.5c-0.2-0.2-0.5-0.3-1.1-0.4c-0.9-0.2-1.6-0.5-2-0.8c-0.4-0.4-0.6-0.8-0.6-1.3
		c0-0.4,0.1-0.7,0.3-1s0.5-0.5,0.9-0.8c0.4-0.2,1-0.3,1.7-0.3c0.8,0,1.5,0.2,2,0.5c0.5,0.3,0.8,0.8,0.8,1.5l-2,0.2
		c-0.1-0.3-0.2-0.5-0.3-0.7c-0.2-0.2-0.4-0.2-0.7-0.2c-0.2,0-0.5,0.1-0.5,0.2c-0.2,0.1-0.2,0.2-0.2,0.4c0,0.1,0.1,0.2,0.2,0.3
		c0.1,0.1,0.3,0.2,0.7,0.2c0.9,0.2,1.6,0.4,2,0.6c0.4,0.2,0.7,0.5,0.9,0.8c0.2,0.3,0.3,0.6,0.3,1c0,0.5-0.2,0.8-0.4,1.2
		c-0.2,0.4-0.6,0.7-1.1,0.8c-0.5,0.2-1,0.3-1.7,0.3c-1.2,0-2-0.2-2.5-0.7C292.9,10.1,292.6,9.5,292.5,8.8L292.5,8.8z"/>
	<path class="st4" d="M279.7,13.8l0.5,0.2c-0.1,0.2-0.1,0.3-0.2,0.4s-0.2,0.2-0.3,0.2c-0.2,0.1-0.3,0.1-0.5,0.1
		c-0.2,0-0.4,0-0.5-0.1c-0.2-0.1-0.3-0.2-0.4-0.4c-0.1-0.2-0.2-0.4-0.2-0.6c0-0.4,0.1-0.6,0.3-0.8c0.2-0.2,0.5-0.3,0.8-0.3
		c0.2,0,0.5,0.1,0.6,0.2c0.2,0.1,0.2,0.3,0.3,0.5l-0.6,0.2c0-0.1-0.1-0.1-0.1-0.2c0-0.1-0.1-0.1-0.2-0.2c-0.1,0-0.1-0.1-0.2-0.1
		c-0.2,0-0.2,0.1-0.3,0.2s-0.1,0.2-0.1,0.4c0,0.2,0,0.4,0.1,0.5c0.1,0.1,0.2,0.2,0.3,0.2s0.2,0,0.3-0.1
		C279.7,14.1,279.7,14,279.7,13.8L279.7,13.8z"/>
	<path class="st4" d="M280.7,13.6c0-0.4,0.1-0.6,0.3-0.8c0.2-0.2,0.5-0.3,0.8-0.3c0.4,0,0.6,0.1,0.8,0.3c0.2,0.2,0.3,0.5,0.3,0.8
		c0,0.2-0.1,0.5-0.2,0.6c-0.1,0.2-0.2,0.3-0.4,0.4c-0.2,0.1-0.4,0.2-0.6,0.2s-0.5,0-0.6-0.1c-0.2-0.1-0.3-0.2-0.4-0.4
		C280.7,14.1,280.7,13.9,280.7,13.6L280.7,13.6z M281.3,13.7c0,0.2,0.1,0.4,0.2,0.5c0.1,0.1,0.2,0.2,0.3,0.2s0.2-0.1,0.3-0.2
		c0.1-0.1,0.2-0.2,0.2-0.5c0-0.2-0.1-0.3-0.2-0.5c-0.1-0.1-0.2-0.2-0.3-0.2s-0.2,0.1-0.3,0.2C281.4,13.3,281.3,13.5,281.3,13.7
		L281.3,13.7z"/>
	<path class="st4" d="M283.3,12.6h0.8l0.3,1.3l0.3-1.3h0.8v2.1h-0.5v-1.6l-0.4,1.6h-0.5l-0.4-1.6v1.6h-0.5V12.6z"/>
	<path class="st4" d="M286.2,12.6h1.1c0.2,0,0.4,0.1,0.5,0.2c0.2,0.1,0.2,0.3,0.2,0.5c0,0.2-0.1,0.4-0.2,0.5
		c-0.2,0.2-0.3,0.2-0.6,0.2h-0.4v0.8h-0.7L286.2,12.6z M286.8,13.5h0.2c0.2,0,0.2,0,0.2-0.1c0.1-0.1,0.1-0.1,0.1-0.2
		c0-0.1,0-0.2-0.1-0.2c-0.1-0.1-0.2-0.1-0.2-0.1h-0.2V13.5L286.8,13.5z"/>
	<path class="st4" d="M288.4,12.6h0.7v1.6h1v0.5h-1.7L288.4,12.6L288.4,12.6z"/>
	<rect x="290.6" y="12.6" class="st4" width="0.7" height="2.1"/>
	<path class="st4" d="M293.1,14.4h-0.8l-0.1,0.4h-0.7l0.8-2.1h0.7l0.8,2.1h-0.7V14.4z M293,13.9l-0.2-0.8l-0.2,0.8H293z"/>
	<path class="st4" d="M294.2,12.6h0.6l0.8,1.2v-1.2h0.6v2.1h-0.6l-0.8-1.2v1.2h-0.6V12.6z"/>
	<path class="st4" d="M296.7,12.6h2v0.5H298v1.6h-0.7v-1.6h-0.7L296.7,12.6L296.7,12.6z"/>
	<path class="st5" d="M266,21.9c-0.7,0-1.4-0.2-1.6-0.4c-0.2-0.2-1.3-1.5-3.2-3.9l-0.1-0.1v-0.1c-0.1-0.5,0.1-0.9,0.4-1.4
		c0.4-0.5,0.9-0.7,1.3-0.7c0.1,0,0.2,0,0.3,0.1c0.6,0.2,1.9,1.4,2.7,2.1c0.6-0.8,1.9-2.8,3.4-4.8c3.9-5.3,4.4-5.5,4.6-5.7
		c1-0.5,2.2-0.6,2.9-0.6c0.1,0,0.2,0,0.3,0c0.2,0,0.4,0.2,0.5,0.3c0.2,0.4-0.1,0.6-0.8,1.4c-1.5,1.7-5.2,5.6-8.5,12.9v0.1v0.1
		C267.6,21.6,266.9,21.9,266,21.9L266,21.9z"/>
	<path class="st2" d="M276.7,6.8c0.1,0,0.2,0,0.2,0c0.7,0.1-4.6,3.7-9.3,13.9c-0.4,0.5-1,0.7-1.6,0.7c-0.6,0-1.2-0.2-1.4-0.3
		c-0.3-0.2-3.1-3.9-3.1-3.9c-0.2-0.8,0.8-1.5,1.3-1.5c0.1,0,0.1,0,0.2,0c0.6,0.2,2.9,2.4,2.9,2.4s7-10.2,8-10.7
		C274.9,7.1,276.1,6.8,276.7,6.8 M276.7,6c-0.8,0-2.1,0.2-3.1,0.7c-0.3,0.2-0.8,0.4-4.8,5.9c-1.2,1.7-2.4,3.4-3.1,4.4
		c-0.2-0.2-0.3-0.3-0.5-0.5c-1.2-1.1-1.7-1.3-2-1.4c-0.2-0.1-0.3-0.1-0.5-0.1c-0.5,0-1.2,0.3-1.7,0.8c-0.5,0.5-0.6,1.1-0.5,1.7v0.2
		l0.2,0.2c2.9,3.8,3.2,3.9,3.3,4c0.3,0.2,1.1,0.4,1.8,0.4c1,0,1.8-0.3,2.3-1l0.1-0.1l0.1-0.1c3.3-7.2,6.9-11.1,8.5-12.7
		c0.3-0.3,0.5-0.5,0.6-0.7c0.2-0.2,0.5-0.6,0.3-1.2c-0.2-0.3-0.5-0.5-0.8-0.6C277,6,276.9,6,276.7,6L276.7,6z"/>
</g>
<g>
	<path class="st6" d="M3.5,9.6L1,2.1h1.1l1.2,3.7c0.3,1.1,0.6,1.9,0.8,2.8l0,0c0.2-0.8,0.5-1.8,0.8-2.8l1.3-3.8h1.1L4.6,9.6L3.5,9.6
		L3.5,9.6z M7.7,7.1C7.7,8.4,8.6,9,9.6,9c0.7,0,1.1-0.2,1.5-0.3l0.2,0.7c-0.4,0.2-0.9,0.3-1.8,0.3C7.7,9.7,6.8,8.6,6.8,7
		S7.7,4,9.3,4c1.8,0,2.2,1.5,2.2,2.5c0,0.2,0,0.4,0,0.5L7.7,7.1z M10.7,6.4c0-0.6-0.2-1.6-1.4-1.6c-1,0-1.5,0.9-1.5,1.6H10.7z
		 M12.3,6c0-0.6,0-1.2-0.1-1.7h0.8v1.1h0.2c0.2-0.7,0.8-1.2,1.5-1.2c0.1,0,0.2,0,0.3,0v0.9c-0.1,0-0.2,0-0.3,0
		c-0.7,0-1.2,0.5-1.3,1.2c0,0.2-0.1,0.3-0.1,0.5v2.9h-1L12.3,6L12.3,6L12.3,6z M16.7,2.7c0,0.3-0.2,0.6-0.6,0.6S15.5,3,15.5,2.7
		c0-0.4,0.2-0.6,0.6-0.6S16.7,2.4,16.7,2.7L16.7,2.7z M15.6,4.3h1v5.4h-1V4.3L15.6,4.3z M17.9,9.6V5h-0.8V4.2h0.8V4
		c0-0.8,0.2-1.5,0.6-1.9c0.4-0.3,0.8-0.5,1.3-0.5c0.3,0,0.6,0.1,0.8,0.2l-0.2,0.8c-0.1-0.1-0.3-0.2-0.6-0.2c-0.8,0-1.1,0.7-1.1,1.6
		v0.3h1.3V5h-1.3v4.7L17.9,9.6L17.9,9.6z M22.2,2.7c0,0.3-0.2,0.6-0.6,0.6C21.2,3.4,21,3,21,2.7c0-0.4,0.2-0.6,0.6-0.6
		S22.2,2.4,22.2,2.7L22.2,2.7z M21.2,4.3h1v5.4h-1V4.3L21.2,4.3z M23.8,7.1c0,1.3,0.8,1.9,1.8,1.9c0.7,0,1.1-0.2,1.5-0.3l0.2,0.7
		c-0.4,0.2-0.9,0.3-1.8,0.3c-1.7,0-2.7-1.1-2.7-2.8S23.8,4,25.4,4c1.8,0,2.2,1.5,2.2,2.5c0,0.2,0,0.4,0,0.5L23.8,7.1z M26.8,6.4
		c0-0.6-0.2-1.6-1.4-1.6c-1,0-1.5,0.9-1.5,1.6H26.8z M33.2,1.7v6.5c0,0.5,0,1,0.1,1.4h-0.8l-0.1-0.9l0,0c-0.3,0.6-0.9,1.1-1.8,1.1
		c-1.3,0-2.3-1.1-2.3-2.8c0-1.8,1.1-2.9,2.5-2.9c0.8,0,1.4,0.4,1.6,0.8l0,0V1.7H33.2L33.2,1.7z M32.2,6.4c0-0.2,0-0.3-0.1-0.5
		c-0.2-0.6-0.7-1.2-1.5-1.2c-1,0-1.6,0.9-1.6,2.1c0,1.1,0.5,2,1.6,2c0.6,0,1.2-0.5,1.5-1.2c0-0.2,0.1-0.3,0.1-0.5V6.4L32.2,6.4z
		 M36.8,9.6c0-0.4,0.1-0.9,0.1-1.4V1.7h0.9v3.4l0,0c0.4-0.6,1-1,1.8-1c1.4,0,2.3,1.2,2.3,2.8c0,1.9-1.2,2.9-2.5,2.9
		c-0.8,0-1.4-0.3-1.8-1l0,0l-0.1,0.9L36.8,9.6L36.8,9.6z M37.8,7.5c0,0.2,0,0.2,0.1,0.4C38.1,8.6,38.6,9,39.3,9C40.3,9,41,8.2,41,7
		c0-1.1-0.5-2-1.6-2c-0.7,0-1.3,0.5-1.5,1.2c0,0.2-0.1,0.2-0.1,0.4L37.8,7.5L37.8,7.5z M43.1,4.3l1.2,3.2c0.2,0.4,0.2,0.8,0.4,1.1
		l0,0c0.1-0.3,0.2-0.8,0.4-1.2l1.1-3.2h1.1L45.7,8c-0.7,1.8-1.1,2.8-1.8,3.4c-0.5,0.5-0.9,0.6-1.2,0.6l-0.2-0.8
		c0.3-0.1,0.6-0.2,0.8-0.5c0.3-0.2,0.6-0.6,0.8-1.1c0.1-0.1,0.1-0.2,0.1-0.2s0-0.2-0.1-0.2l-2-5C42,4.3,43.1,4.3,43.1,4.3z
		 M17.3,13.3l-3,7.5l-1.2-6.4c-0.2-0.7-0.7-1.2-1.3-1.2H6.9l-0.1,0.3c1,0.2,2.1,0.6,2.8,0.9c0.5,0.2,0.5,0.5,0.7,1l2.3,8.8h3.1
		l4.7-11.1L17.3,13.3L17.3,13.3z M21.6,13.3l-2.4,11.1h2.9l2.4-11.1H21.6z M28.2,16.4c0-0.4,0.4-0.8,1.2-0.9
		c0.4-0.1,1.5-0.1,2.8,0.5l0.5-2.4c-0.7-0.2-1.6-0.5-2.7-0.5c-2.8,0-4.8,1.5-4.8,3.7c0,1.6,1.5,2.5,2.5,3c1.1,0.5,1.5,0.8,1.5,1.4
		c0,0.8-0.9,1.1-1.7,1.1c-1.5,0-2.3-0.4-3-0.7L24.1,24c0.7,0.3,1.9,0.6,3.1,0.6c3,0,5-1.5,5-3.8C32.3,17.9,28.2,17.7,28.2,16.4
		 M36.5,20.5l1.5-4.1l0.8,4.1H36.5L36.5,20.5z M37.6,13.3c-0.5,0-1,0.3-1.2,0.8l-4.3,10.3h3l0.6-1.7h3.7l0.4,1.7h2.6l-2.3-11.1
		L37.6,13.3L37.6,13.3L37.6,13.3L37.6,13.3z"/>
</g>
<g>
	<g id="XMLID_121_">
		<rect x="72" y="7.3" class="st7" width="6.1" height="10.9"/>
		<path id="XMLID_125_" class="st8" d="M72.4,12.8c0-2.2,1-4.2,2.6-5.4c-1.2-0.9-2.7-1.5-4.3-1.5c-3.8,0-6.9,3.1-6.9,6.9
			c0,3.8,3.1,6.9,6.9,6.9c1.6,0,3.1-0.6,4.3-1.5C73.4,16.9,72.4,15,72.4,12.8z"/>
		<path class="st9" d="M86.2,12.8c0,3.8-3.1,6.9-6.9,6.9c-1.6,0-3.1-0.6-4.3-1.5c1.6-1.3,2.6-3.2,2.6-5.4s-1-4.2-2.6-5.4
			c1.2-0.9,2.7-1.5,4.3-1.5C83.1,5.8,86.2,8.9,86.2,12.8z"/>
		<path class="st9" d="M85.5,17v-0.2h0.1v0h-0.2v0h0.1L85.5,17L85.5,17z M86,17v-0.3h-0.1L85.8,17l-0.1-0.2h-0.1V17h0v-0.2l0.1,0.2
			h0.1l0.1-0.2L86,17L86,17z"/>
	</g>
	<polygon points="93.3,19.7 93,19.7 93,17.4 93,12.7 93,8 93,5.7 93.3,5.7 93.3,10.4 93.3,15 	"/>
	<path d="M100.3,17h-0.7V8.8h0.7V17z M105.6,8.8c0.7,0,1.3,0.1,1.9,0.3c0.5,0.2,1,0.5,1.4,0.8c0.4,0.4,0.7,0.8,0.9,1.3
		c0.2,0.5,0.3,1.1,0.3,1.7c0,0.6-0.1,1.2-0.3,1.7c-0.2,0.5-0.5,0.9-0.9,1.3c-0.4,0.4-0.9,0.6-1.4,0.8c-0.5,0.2-1.2,0.3-1.9,0.3h-3
		V8.8H105.6z M103.3,9.5v6.9h2.3c0.6,0,1.1-0.1,1.6-0.2c0.5-0.2,0.8-0.4,1.2-0.7c0.3-0.3,0.6-0.7,0.7-1.1c0.2-0.4,0.2-0.9,0.2-1.4
		c0-0.5-0.1-1-0.2-1.4c-0.2-0.4-0.4-0.8-0.7-1.1c-0.3-0.3-0.7-0.5-1.2-0.7c-0.5-0.2-1-0.2-1.6-0.2H103.3z M118.4,8.7
		c0.4,0,0.7,0,1,0.1c0.3,0.1,0.6,0.2,0.9,0.3c0.3,0.1,0.5,0.3,0.8,0.5c0.2,0.2,0.4,0.4,0.6,0.7l-0.6,0.4c-0.1-0.2-0.3-0.4-0.5-0.6
		c-0.2-0.2-0.4-0.3-0.6-0.4c-0.2-0.1-0.5-0.2-0.8-0.3c-0.3-0.1-0.5-0.1-0.8-0.1c-0.5,0-0.9,0.1-1.4,0.3c-0.4,0.2-0.8,0.4-1.1,0.7
		c-0.3,0.3-0.6,0.7-0.7,1.1c-0.2,0.4-0.3,0.9-0.3,1.4c0,0.5,0.1,1,0.3,1.4c0.2,0.4,0.4,0.8,0.7,1.1c0.3,0.3,0.7,0.5,1.1,0.7
		c0.4,0.2,0.9,0.3,1.4,0.3c0.3,0,0.6,0,0.8-0.1c0.3-0.1,0.5-0.2,0.8-0.3c0.2-0.1,0.4-0.3,0.6-0.4c0.2-0.2,0.4-0.4,0.5-0.6l0.6,0.4
		c-0.2,0.3-0.4,0.5-0.6,0.7c-0.2,0.2-0.5,0.4-0.8,0.5c-0.3,0.1-0.6,0.3-0.9,0.3c-0.3,0.1-0.7,0.1-1,0.1c-0.6,0-1.2-0.1-1.7-0.3
		c-0.5-0.2-1-0.5-1.3-0.9c-0.4-0.4-0.7-0.8-0.9-1.3c-0.2-0.5-0.3-1.1-0.3-1.7c0-0.6,0.1-1.2,0.3-1.7c0.2-0.5,0.5-1,0.9-1.3
		c0.4-0.4,0.8-0.7,1.3-0.9C117.2,8.8,117.8,8.7,118.4,8.7z M123.9,12.5c0.1-0.2,0.2-0.3,0.4-0.5c0.1-0.1,0.3-0.2,0.5-0.3
		c0.2-0.1,0.4-0.1,0.5-0.2c0.2,0,0.4-0.1,0.6-0.1c0.3,0,0.7,0.1,0.9,0.2c0.3,0.1,0.5,0.3,0.7,0.4c0.2,0.2,0.4,0.4,0.5,0.7
		c0.1,0.3,0.2,0.6,0.2,0.9V17h-0.7v-3.2c0-0.3,0-0.5-0.1-0.8c-0.1-0.2-0.2-0.4-0.3-0.6c-0.2-0.2-0.3-0.3-0.6-0.4
		c-0.2-0.1-0.5-0.1-0.8-0.1c-0.3,0-0.5,0-0.7,0.1c-0.2,0.1-0.4,0.2-0.6,0.4c-0.2,0.2-0.3,0.4-0.4,0.6c-0.1,0.2-0.1,0.5-0.1,0.7V17
		h-0.7V8.6h0.7V12.5z M132.2,11.4c0.4,0,0.7,0.1,1,0.2c0.3,0.1,0.6,0.3,0.8,0.6c0.2,0.2,0.4,0.5,0.5,0.9c0.1,0.3,0.2,0.7,0.2,1.1
		c0,0.1,0,0.1,0,0.1c0,0,0,0.1,0,0.1h-4.6c0,0.3,0.1,0.6,0.2,0.9c0.1,0.3,0.3,0.5,0.5,0.6c0.2,0.2,0.4,0.3,0.7,0.4
		c0.2,0.1,0.5,0.1,0.8,0.1c0.4,0,0.7-0.1,1-0.2c0.3-0.1,0.6-0.3,0.8-0.6l0.4,0.5c-0.2,0.2-0.4,0.3-0.5,0.4c-0.2,0.1-0.4,0.2-0.6,0.3
		c-0.2,0.1-0.4,0.1-0.6,0.1c-0.2,0-0.4,0-0.6,0c-0.4,0-0.8-0.1-1.1-0.2c-0.3-0.1-0.6-0.3-0.9-0.6c-0.2-0.3-0.4-0.6-0.6-0.9
		c-0.1-0.3-0.2-0.7-0.2-1.2c0-0.4,0.1-0.8,0.2-1.2c0.1-0.4,0.3-0.7,0.6-0.9c0.2-0.3,0.5-0.5,0.9-0.6
		C131.5,11.5,131.8,11.4,132.2,11.4z M132.2,12c-0.3,0-0.5,0-0.8,0.1c-0.2,0.1-0.4,0.2-0.6,0.4s-0.3,0.4-0.4,0.6
		c-0.1,0.2-0.2,0.5-0.2,0.8h4c0-0.3-0.1-0.5-0.2-0.8c-0.1-0.2-0.2-0.4-0.4-0.6c-0.2-0.2-0.4-0.3-0.6-0.4
		C132.7,12.1,132.5,12,132.2,12z M138.7,11.4c0.4,0,0.8,0.1,1.1,0.2c0.4,0.1,0.7,0.4,0.9,0.6l-0.4,0.5c-0.2-0.2-0.5-0.4-0.7-0.5
		c-0.3-0.1-0.6-0.2-0.9-0.2c-0.3,0-0.6,0.1-0.8,0.2c-0.3,0.1-0.5,0.3-0.7,0.5c-0.2,0.2-0.3,0.4-0.5,0.7c-0.1,0.3-0.2,0.6-0.2,0.9
		c0,0.3,0.1,0.6,0.2,0.9c0.1,0.3,0.3,0.5,0.5,0.7c0.2,0.2,0.4,0.4,0.7,0.5c0.3,0.1,0.5,0.2,0.8,0.2c0.3,0,0.6-0.1,0.9-0.2
		c0.3-0.1,0.5-0.3,0.7-0.5l0.4,0.5c-0.3,0.3-0.6,0.5-0.9,0.6c-0.3,0.1-0.7,0.2-1.1,0.2c-0.4,0-0.8-0.1-1.1-0.2
		c-0.3-0.1-0.6-0.3-0.9-0.6c-0.3-0.3-0.4-0.6-0.6-0.9c-0.1-0.3-0.2-0.7-0.2-1.1c0-0.4,0.1-0.8,0.2-1.1c0.1-0.3,0.3-0.7,0.6-0.9
		c0.3-0.3,0.6-0.5,0.9-0.6C137.9,11.5,138.3,11.4,138.7,11.4z M142.8,13.8h0.9l2.3-2.3h0.8l-2.6,2.6l2.7,2.9H146l-2.4-2.6h-0.9V17
		h-0.7V8.6h0.7V13.8z"/>
</g>
</svg>
