<?xml version="1.0" encoding="utf-8"?>
<!-- Generator: Adobe Illustrator 16.0.0, SVG Export Plug-In . SVG Version: 6.00 Build 0)  -->
<!DOCTYPE svg PUBLIC "-//W3C//DTD SVG 1.1//EN" "http://www.w3.org/Graphics/SVG/1.1/DTD/svg11.dtd">
<svg version="1.1" id="Layer_1" xmlns="http://www.w3.org/2000/svg" xmlns:xlink="http://www.w3.org/1999/xlink" x="0px" y="0px"
	 width="205px" height="205px" viewBox="-2.5 647.5 205 205" enable-background="new -2.5 647.5 205 205" xml:space="preserve">
<linearGradient id="SVGID_1_" gradientUnits="userSpaceOnUse" x1="761.2314" y1="1832.1211" x2="761.2314" y2="2344.1211" gradientTransform="matrix(0.3906 0 0 -0.3906 -197.3555 1565.6729)">
	<stop  offset="0" style="stop-color:#E73827"/>
	<stop  offset="1" style="stop-color:#F85032"/>
</linearGradient>
<circle fill="url(#SVGID_1_)" cx="100" cy="750" r="100"/>
<path fill="#FFFFFF" stroke="#FFFFFF" stroke-width="15" stroke-miterlimit="10" d="M104.961,750l46.719-46.719
	c1.25-1.25,1.25-3.242,0-4.453c-1.25-1.25-3.242-1.25-4.453,0l-46.758,46.719l-47.695-47.695c-1.25-1.25-3.242-1.25-4.453,0
	c-1.25,1.25-1.25,3.242,0,4.453L96.016,750L48.32,797.695c-1.25,1.25-1.25,3.242,0,4.453c0.625,0.625,1.445,0.938,2.227,0.938
	c0.82,0,1.602-0.313,2.227-0.938l47.695-47.695l46.719,46.719c0.625,0.625,1.445,0.938,2.227,0.938c0.82,0,1.602-0.313,2.227-0.938
	c1.25-1.25,1.25-3.242,0-4.453L104.961,750z"/>
</svg>
