<?xml version="1.0" encoding="utf-8"?>
<!-- Generator: Adobe Illustrator 16.0.0, SVG Export Plug-In . SVG Version: 6.00 Build 0)  -->
<!DOCTYPE svg PUBLIC "-//W3C//DTD SVG 1.1//EN" "http://www.w3.org/Graphics/SVG/1.1/DTD/svg11.dtd">
<svg version="1.1" id="Слой_1" xmlns="http://www.w3.org/2000/svg" xmlns:xlink="http://www.w3.org/1999/xlink" x="0px" y="0px"
	 width="300px" height="62px" viewBox="0 0 300 62" enable-background="new 0 0 300 62" xml:space="preserve">
<g>
	<path fill="#FFFFFF" d="M188.006,21.015h6.834c4.148,0,7.205,3.192,7.205,7.112c0,3.968-3.057,7.161-7.205,7.161h-3.102v5.696
		h-3.732V21.015z M191.695,24.433v7.34h2.828c2.23,0,3.736-1.64,3.736-3.693c0-2.005-1.506-3.647-3.736-3.647H191.695z"/>
	<path fill="#FFFFFF" d="M202.73,33.004c0-5.288,3.873-8.342,7.932-8.342c2.1,0,4.014,0.867,5.15,2.235v-1.915h3.693v16.001h-3.693
		v-2.096c-1.186,1.458-3.1,2.416-5.195,2.416C206.785,41.304,202.73,38.203,202.73,33.004 M215.998,32.915
		c0-2.691-2.051-4.925-4.791-4.925c-2.732,0-4.832,2.143-4.832,4.925c0,2.78,2.1,4.968,4.832,4.968
		C213.947,37.883,215.998,35.695,215.998,32.915"/>
	<polygon fill="#FFFFFF" points="227.301,40.166 220.74,24.982 224.658,24.982 229.129,35.743 233.322,24.982 237.244,24.982 
		227.67,48.37 223.93,48.37 	"/>
	<polygon fill="#FFFFFF" points="149.112,21.561 149.34,36.24 149.248,36.24 144.961,21.561 138.032,21.561 138.032,40.069 
		142.636,40.069 142.364,24.89 142.454,24.89 147.061,40.069 153.717,40.069 153.717,21.561 	"/>
	<polygon fill="#FFFFFF" points="61.162,21.561 57.696,40.254 62.758,40.254 65.312,23.294 65.401,23.294 67.909,40.254 
		72.924,40.254 69.459,21.561 	"/>
	<polygon fill="#FFFFFF" points="89.384,21.561 87.104,35.832 86.968,35.832 84.687,21.561 77.074,21.561 76.664,40.254 
		81.314,40.254 81.451,23.432 81.542,23.432 84.643,40.254 89.384,40.254 92.53,23.432 92.621,23.432 92.759,40.254 97.41,40.254 
		96.999,21.561 	"/>
	<path fill="#FFFFFF" d="M49.855,34.967c0.182,0.456,0.136,1.049,0.044,1.369c-0.136,0.634-0.591,1.274-1.823,1.274
		c-1.186,0-1.869-0.681-1.869-1.687v-1.822h-5.015v1.458c0,4.149,3.283,5.424,6.792,5.424c3.375,0,6.157-1.138,6.612-4.286
		c0.228-1.595,0.046-2.688,0-3.053c-0.775-3.921-7.888-5.061-8.388-7.25c-0.092-0.364-0.092-0.775,0-1.003
		c0.136-0.591,0.547-1.276,1.687-1.276c1.093,0,1.732,0.685,1.732,1.687v1.14h4.651v-1.322c0-4.058-3.647-4.695-6.293-4.695
		c-3.327,0-6.017,1.094-6.519,4.148c-0.136,0.821-0.136,1.596,0.046,2.508C42.24,31.457,48.852,32.547,49.855,34.967"/>
	<path fill="#FFFFFF" d="M110.584,34.918c0.182,0.457,0.138,1.006,0.046,1.37c-0.136,0.593-0.547,1.234-1.823,1.234
		c-1.142,0-1.871-0.689-1.871-1.69v-1.779h-4.969v1.414c0,4.15,3.237,5.38,6.702,5.38c3.329,0,6.111-1.138,6.52-4.238
		c0.229-1.594,0.046-2.644,0-3.012c-0.773-3.874-7.795-5.013-8.342-7.203c-0.092-0.364-0.046-0.775-0.046-0.957
		c0.136-0.593,0.547-1.23,1.687-1.23c1.096,0,1.732,0.683,1.732,1.687v1.14h4.604v-1.322c0-4.012-3.601-4.65-6.245-4.65
		c-3.283,0-5.973,1.094-6.476,4.104c-0.136,0.819-0.136,1.55,0.046,2.507C103.062,31.457,109.627,32.547,110.584,34.918"/>
	<path fill="#FFFFFF" d="M126.269,37.426c1.277,0,1.686-0.909,1.778-1.366c0.046-0.18,0.046-0.452,0.046-0.729V21.515h4.741v13.403
		c0,0.369-0.046,1.05-0.046,1.234c-0.318,3.465-3.101,4.606-6.519,4.606c-3.419,0-6.201-1.142-6.52-4.606
		c0-0.185-0.046-0.865-0.046-1.234V21.515h4.696v13.816c0,0.229,0,0.501,0.046,0.729C124.536,36.561,124.947,37.426,126.269,37.426"
		/>
	<path fill="#FFFFFF" d="M165.205,37.246c1.369,0,1.826-0.865,1.914-1.366c0.049-0.232,0.049-0.457,0.049-0.729v-2.739h-1.916
		v-2.734h6.609v5.018c0,0.36,0,0.593-0.047,1.229c-0.316,3.417-3.236,4.603-6.563,4.603c-3.328,0-6.248-1.229-6.568-4.603
		c-0.041-0.637-0.041-0.869-0.041-1.229v-7.844c0-0.32,0.041-0.911,0.088-1.231c0.41-3.511,3.238-4.604,6.566-4.604
		s6.201,1.093,6.564,4.604c0.049,0.593,0.049,1.231,0.049,1.231v0.639h-4.699V26.44c0,0,0-0.457-0.043-0.729
		c-0.092-0.41-0.457-1.368-1.871-1.368c-1.365,0-1.779,0.911-1.871,1.368c-0.043,0.229-0.088,0.593-0.088,0.865v8.526
		c0,0.229,0,0.505,0.045,0.729C163.383,36.381,163.883,37.246,165.205,37.246"/>
	<path fill="#FFFFFF" d="M249.418,21.425h-0.182c-0.232,0.046-0.412,0.136-0.553,0.229c-0.408,0.365-0.771,0.775-1.182,1.14
		l-0.229,0.365c-0.092,0.274-0.047,0.546,0.137,0.729c0.365,0.411,0.777,0.821,1.139,1.186c0.412,0.365,0.777,0.729,1.186,1.14
		c0.367,0.364,0.777,0.775,1.186,1.14c0.367,0.364,0.777,0.729,1.186,1.14c0.369,0.367,0.777,0.775,1.141,1.14
		c0.365,0.411,0.773,0.775,1.143,1.142l-0.277,0.272c-0.412,0.364-0.771,0.773-1.186,1.142c-0.408,0.36-0.773,0.773-1.182,1.138
		c-0.412,0.408-0.777,0.777-1.186,1.138c-0.412,0.368-0.777,0.777-1.186,1.146c-0.369,0.408-0.777,0.773-1.186,1.182l-0.549,0.549
		l-0.365,0.457l-0.047,0.593l0.184,0.316l0.049,0.044c0.359,0.412,0.773,0.777,1.186,1.142c0.137,0.14,0.359,0.18,0.633,0.18
		l0.232-0.04c0.271-0.14,0.5-0.368,0.729-0.593c0.225-0.276,0.502-0.505,0.729-0.776l0.41-0.409
		c0.367-0.368,0.775-0.729,1.186-1.142c0.408-0.364,0.777-0.773,1.186-1.142c0.408-0.408,0.777-0.773,1.186-1.138
		c0.408-0.368,0.777-0.729,1.186-1.142c0.408-0.364,0.777-0.773,1.186-1.142c0.408-0.408,0.777-0.773,1.186-1.138l0.32-0.408
		l0.045-0.595l-0.045-0.09c-0.32-0.411-0.686-0.775-1.098-1.14c-0.408-0.365-0.773-0.729-1.186-1.14
		c-0.359-0.365-0.773-0.729-1.186-1.14c-0.408-0.367-0.816-0.731-1.186-1.14c-0.361-0.367-0.773-0.775-1.186-1.142
		c-0.361-0.365-0.773-0.775-1.186-1.14c-0.361-0.365-0.773-0.775-1.182-1.14l-0.549-0.593
		C249.918,21.699,249.689,21.561,249.418,21.425"/>
</g>
</svg>
