<?xml version="1.0" encoding="utf-8"?>
<!-- Generator: Adobe Illustrator 23.1.0, SVG Export Plug-In . SVG Version: 6.00 Build 0)  -->
<svg version="1.1" id="Layer_1" xmlns="http://www.w3.org/2000/svg" xmlns:xlink="http://www.w3.org/1999/xlink" x="0px" y="0px"
	 width="31.3px" height="61.4px" viewBox="0 0 31.3 61.4" style="enable-background:new 0 0 31.3 61.4;" xml:space="preserve">
<style type="text/css">
	.st0{fill:none;stroke:#404244;stroke-width:2;stroke-linecap:round;stroke-linejoin:round;stroke-miterlimit:10;}
	.st1{fill-rule:evenodd;clip-rule:evenodd;fill:#404244;}
</style>
<g>
	<line class="st0" x1="23.1" y1="41" x2="8.1" y2="56"/>
	<line class="st0" x1="23.1" y1="56" x2="8.1" y2="41"/>
</g>
<g>
	<path class="st1" d="M15.6,5.9c0.3-0.3,0.9-0.3,1.2,0l3.4,3.4c0.2,0.2,0.2,0.4,0.2,0.6c0,0.2-0.1,0.4-0.2,0.6l-3.4,3.4
		c-0.3,0.3-0.9,0.3-1.2,0c-0.3-0.3-0.3-0.9,0-1.2l1.9-1.9H14c-2.2,0-4.4,0.3-6.1,2c-1.2,1.2-2,3.3-2,5c0,0.5-0.4,0.8-0.9,0.8
		c-0.5,0-0.8-0.4-0.8-0.9c0.1-2,0.9-4.6,2.5-6.2C8.8,9.3,11.7,9,14,9h3.6l-1.9-1.9C15.3,6.8,15.3,6.3,15.6,5.9L15.6,5.9z"/>
	<path class="st1" d="M26.3,15.8c0.5,0,0.8,0.4,0.8,0.9c-0.1,2-0.9,4.6-2.5,6.2c-2.2,2.2-5,2.5-7.3,2.5h-3.6l1.9,1.9
		c0.3,0.3,0.3,0.9,0,1.2s-0.9,0.3-1.2,0l-3.4-3.4c-0.2-0.2-0.2-0.4-0.2-0.6c0-0.2,0.1-0.4,0.2-0.6l3.4-3.4c0.3-0.3,0.9-0.3,1.2,0
		s0.3,0.9,0,1.2l-1.9,1.9h3.6c2.2,0,4.4-0.3,6.1-2c1.2-1.2,2-3.3,2-5C25.5,16.1,25.9,15.8,26.3,15.8L26.3,15.8z"/>
</g>
</svg>
