<?xml version="1.0" encoding="utf-8"?>
<!-- Generator: Adobe Illustrator 23.1.0, SVG Export Plug-In . SVG Version: 6.00 Build 0)  -->
<svg version="1.1" id="Layer_1" xmlns="http://www.w3.org/2000/svg" xmlns:xlink="http://www.w3.org/1999/xlink" x="0px" y="0px"
	 width="39.6px" height="349.9px" viewBox="0 0 39.6 349.9" style="enable-background:new 0 0 39.6 349.9;" xml:space="preserve">
<style type="text/css">
	.st0{fill:#4D4F53;}
	.st1{fill:none;stroke:#4D4F53;stroke-width:2;stroke-linecap:round;stroke-linejoin:round;stroke-miterlimit:10;}
	.st2{fill:none;stroke:#4D4F53;stroke-width:2;stroke-linecap:round;stroke-miterlimit:10;}
	.st3{fill:#FF5F00;}
	.st4{fill:#EB001B;}
	.st5{fill:#F69E1A;}
	.st6{fill:#7573C0;}
	.st7{fill:#02A0DF;}
	.st8{fill:url(#SVGID_1_);}
	.st9{fill:#319B42;}
	.st10{fill:url(#SVGID_2_);}
	.st11{fill:none;}
	.st12{fill:none;stroke:#424044;stroke-width:2;stroke-linecap:round;stroke-linejoin:round;stroke-miterlimit:10;}
	.st13{fill-rule:evenodd;clip-rule:evenodd;fill:#424044;}
</style>
<g>
	<path class="st0" d="M30.7,6.5H8.9C8,6.5,7.3,7.2,7.3,8.1l0,0v0v14.7v0l0,0c0,0.9,0.7,1.6,1.6,1.6h21.9c0.9,0,1.6-0.7,1.6-1.6l0,0
		V8.1l0,0C32.3,7.3,31.6,6.5,30.7,6.5z M9.8,8.3h20c0.4,0,0.7,0.3,0.7,0.7v1.1H9.1V9C9.1,8.6,9.4,8.3,9.8,8.3z M29.8,22.6h-20
		c-0.4,0-0.7-0.3-0.7-0.7v-6.5h21.4v6.5C30.5,22.3,30.2,22.6,29.8,22.6z"/>
	<rect x="10.9" y="18.1" class="st0" width="10.7" height="0.9"/>
	<rect x="10.9" y="19.9" class="st0" width="5.4" height="0.9"/>
	<rect x="25.1" y="18.1" class="st0" width="3.6" height="2.7"/>
</g>
<g>
	<path class="st1" d="M18.3,96.9c-1.8-0.4-3.3-1.7-3.8-3.6L13,88"/>
	<path class="st1" d="M21.3,88h-9c-0.6,0-1-0.4-1-1v-1c0-0.6,0.4-1,1-1h15c0.6,0,1,0.4,1,1v1c0,0.5-0.3,0.9-0.8,1l-1,0l-1.5,5.3
		c-0.5,1.8-1.9,3.1-3.7,3.5"/>
	<line class="st1" x1="24.3" y1="88" x2="23.5" y2="88"/>
	<path class="st1" d="M21.5,98.2c1.7,0.5,3,1.8,3.5,3.5l1.5,5.3"/>
	<path class="st1" d="M13,107l1.5-5.3c0.5-1.8,2-3.2,3.8-3.6"/>
	<path class="st1" d="M12.3,107h15c0.6,0,1,0.4,1,1v1c0,0.6-0.4,1-1,1h-15c-0.6,0-1-0.4-1-1v-1c0-0.5,0.3-0.9,0.8-1L12.3,107z"/>
	<line class="st1" x1="18.3" y1="99.5" x2="18.3" y2="96"/>
	<line class="st1" x1="21.3" y1="95.3" x2="21.3" y2="98.5"/>
</g>
<path class="st2" d="M22.8,58.5c-0.1-0.9-0.1-1.5-0.1-2.4c0.4-0.2,1.2-1.6,1.4-2.8c0.3,0,0.9-0.3,1.1-1.6c0.1-0.7-0.3-1.1-0.5-1.2
	c0.6-1.6,1.7-6.5-2.2-7c-0.4-0.7-1.4-1-2.8-1c-5.4,0.1-6,3.8-4.8,8c-0.2,0.1-0.6,0.5-0.5,1.2c0.2,1.3,0.7,1.6,1.1,1.6
	c0.1,1.2,1,2.6,1.4,2.8c0,0.8,0,1.5-0.1,2.4c-1.1,2.7-8.2,1.9-8.5,7.1h23C31,60.5,23.8,61.2,22.8,58.5z"/>
<g>
	<path class="st0" d="M27.7,141.2v-2.3c0-4.4-3.6-8-8-8s-8,3.6-8,8v2.3H9.6v14.8H30v-14.8H27.7z M14.1,138.9c0-3.1,2.5-5.7,5.7-5.7
		s5.7,2.5,5.7,5.7v2.3H14.1V138.9z M27.7,153.7H11.8v-10.2h15.9L27.7,153.7L27.7,153.7z"/>
	<path class="st0" d="M18.7,148.7v2.7h2.3v-2.7c0.3-0.3,0.6-0.8,0.6-1.3c0-0.9-0.8-1.7-1.7-1.7c-0.9,0-1.7,0.8-1.7,1.7
		C18.1,147.9,18.3,148.4,18.7,148.7z"/>
</g>
<g id="XMLID_328_">
	<rect x="16" y="210.6" class="st3" width="7.7" height="13.8"/>
	<path id="XMLID_330_" class="st4" d="M16.4,217.5c0-2.8,1.3-5.3,3.3-6.9c-1.5-1.2-3.4-1.9-5.4-1.9c-4.8,0-8.8,3.9-8.8,8.8
		c0,4.8,3.9,8.8,8.8,8.8c2,0,3.9-0.7,5.4-1.9C17.8,222.8,16.4,220.3,16.4,217.5z"/>
	<path class="st5" d="M34,217.5c0,4.8-3.9,8.8-8.8,8.8c-2,0-3.9-0.7-5.4-1.9c2-1.6,3.3-4.1,3.3-6.9s-1.3-5.3-3.3-6.9
		c1.5-1.2,3.4-1.9,5.4-1.9C30,208.8,34,212.7,34,217.5z M33.1,222.9v-0.3h0.1v-0.1H33v0.1h0.1L33.1,222.9L33.1,222.9L33.1,222.9z
		 M33.7,222.9v-0.3h-0.1l-0.1,0.2l-0.1-0.2h-0.1v0.3h0.1v-0.3l0.1,0.2h0.1l0.1-0.2L33.7,222.9L33.7,222.9z"/>
</g>
<g id="XMLID_12_">
	<rect x="16" y="242.3" class="st6" width="7.7" height="13.8"/>
	<path id="XMLID_16_" class="st4" d="M16.4,249.2c0-2.8,1.3-5.3,3.3-6.9c-1.5-1.2-3.4-1.9-5.4-1.9c-4.8,0-8.8,3.9-8.8,8.8
		c0,4.8,3.9,8.8,8.8,8.8c2,0,3.9-0.7,5.4-1.9C17.8,254.4,16.4,252,16.4,249.2z"/>
	<path class="st7" d="M33.1,254.6v-0.3h0.1v-0.1H33v0.1h0.1L33.1,254.6L33.1,254.6z M33.7,254.6v-0.3h-0.1l-0.1,0.2l-0.1-0.2h-0.1
		v0.3h0.1v-0.3l0.1,0.2h0.1l0.1-0.2L33.7,254.6L33.7,254.6z"/>
	<path class="st7" d="M34,249.2c0,4.8-3.9,8.8-8.8,8.8c-2,0-3.9-0.7-5.4-1.9c2-1.6,3.3-4.1,3.3-6.9c0-2.8-1.3-5.3-3.3-6.9
		c1.5-1.2,3.4-1.9,5.4-1.9C30,240.4,34,244.3,34,249.2z"/>
</g>
<linearGradient id="SVGID_1_" gradientUnits="userSpaceOnUse" x1="374.5477" y1="-245.8635" x2="407.1457" y2="-245.8635" gradientTransform="matrix(1 0 0 -1 -371.0547 36.8145)">
	<stop  offset="0" style="stop-color:#2C2958"/>
	<stop  offset="1" style="stop-color:#373491"/>
</linearGradient>
<path class="st8" d="M24.9,277.3L24.9,277.3c-2.7,0-4.5,1.4-4.5,3.4c0,1.5,1.3,2.3,2.3,2.8l0,0c1,0.5,1.4,0.8,1.4,1.3l0,0
	c0,0.7-0.8,1-1.6,1l0,0c-1.1,0-1.6-0.2-2.5-0.5l0,0l-0.3-0.2l-0.4,2.3c0.6,0.3,1.8,0.5,2.9,0.6l0,0c2.8,0,4.6-1.4,4.6-3.5l0,0
	c0-1.2-0.7-2.1-2.2-2.8l0,0c-0.9-0.5-1.5-0.8-1.5-1.3l0,0c0-0.4,0.5-0.9,1.5-0.9l0,0c0.9,0,1.5,0.2,2,0.4l0,0l0.2,0.1l0.4-2.3
	C26.7,277.6,25.9,277.3,24.9,277.3L24.9,277.3z M31.9,277.5h2l2.1,10.4h-2.5l0,0c0,0-0.2-1.2-0.3-1.6l0,0c-0.4,0-3.1,0-3.4,0l0,0
	c-0.1,0.3-0.6,1.6-0.6,1.6h-2.8l3.9-9.5l0,0C30.8,277.7,31.3,277.5,31.9,277.5L31.9,277.5z M32.1,280.3c-0.1,0.4-0.4,1-0.3,1l0,0
	l0,0l0,0c0,0-0.8,2.3-1,2.9h2.2l0,0c-0.1-0.5-0.6-3-0.6-3L32.1,280.3L32.1,280.3z M16.6,277.5L15,287.9h2.6l1.7-10.4H16.6
	L16.6,277.5z M12.8,277.5h2.8l-4.2,10.3H8.6l-2.4-9l0,0l0,0l0,0l0,0l0,0c-0.8-0.5-1.7-0.9-2.7-1.1l0-0.2h4.3l0,0
	c0.6,0,1,0.2,1.2,0.9l0.9,4.8v0l0.3,1.4L12.8,277.5z"/>
<g>
	<g>
		<path class="st9" d="M21.6,308.4l-2,4.3h-0.2v-5.2h-2.8v8.8H19c0.6,0,1.2-0.4,1.5-0.9l2-4.3h0.2v5.2h2.8v-8.8H23
			C22.4,307.5,21.8,307.9,21.6,308.4z"/>
		<path class="st9" d="M11.1,308.7l-1.2,4H9.7l-1.2-4c-0.2-0.7-0.8-1.2-1.5-1.2H4.2v8.8H7v-5.2h0.2l1.6,5.2h2l1.6-5.2h0.2v5.2h2.8
			v-8.8h-2.8C11.9,307.5,11.3,308,11.1,308.7z"/>
		<path class="st9" d="M26.6,311.5v4.8h2.8v-2.8h3c1.3,0,2.4-0.8,2.8-2L26.6,311.5L26.6,311.5z"/>
	</g>
	
		<linearGradient id="SVGID_2_" gradientUnits="userSpaceOnUse" x1="397.2417" y1="-272.4815" x2="406.4377" y2="-272.4815" gradientTransform="matrix(1 0 0 -1 -371.0547 36.8145)">
		<stop  offset="0" style="stop-color:#00A3E1"/>
		<stop  offset="0.3042" style="stop-color:#009ADD"/>
		<stop  offset="0.7987" style="stop-color:#0082D4"/>
		<stop  offset="1" style="stop-color:#0076CF"/>
	</linearGradient>
	<path class="st10" d="M32.4,307.5h-6.2c0.4,2,2.2,3.6,4.3,3.6h4.8c0-0.2,0.1-0.4,0.1-0.6C35.4,308.8,34,307.5,32.4,307.5z"/>
</g>
<rect x="8" y="168.5" class="st11" width="23.5" height="23.5"/>
<rect x="8.3" y="169.2" class="st11" width="23" height="23"/>
<rect x="8.3" y="169.2" class="st11" width="23" height="23"/>
<g>
	<line class="st12" x1="27.3" y1="329.6" x2="12.3" y2="344.6"/>
	<line class="st12" x1="27.3" y1="344.6" x2="12.3" y2="329.6"/>
</g>
<g>
	<path class="st13" d="M19.8,171.5c0.3-0.3,0.7-0.3,1,0l2.7,2.9c0.1,0.1,0.2,0.3,0.2,0.5c0,0.2-0.1,0.4-0.2,0.5l-2.7,2.9
		c-0.3,0.3-0.7,0.3-1,0c-0.3-0.3-0.3-0.7,0-1l1.5-1.7h-2.9c-1.8,0-3.6,0.3-4.9,1.7c-1,1.1-1.6,2.9-1.6,4.4c0,0.4-0.3,0.7-0.7,0.7
		c-0.4,0-0.7-0.3-0.7-0.8c0-1.8,0.7-4,2-5.4c1.8-1.9,4-2.2,5.9-2.2h2.9l-1.5-1.7C19.5,172.2,19.5,171.8,19.8,171.5L19.8,171.5z"/>
	<path class="st13" d="M28.4,180c0.4,0,0.7,0.3,0.7,0.8c0,1.8-0.7,4-2,5.4c-1.8,1.9-4,2.2-5.9,2.2h-2.9l1.5,1.7c0.3,0.3,0.3,0.7,0,1
		c-0.3,0.3-0.7,0.3-1,0l-2.7-2.9c-0.1-0.1-0.2-0.3-0.2-0.5s0.1-0.4,0.2-0.5l2.7-2.9c0.3-0.3,0.7-0.3,1,0c0.3,0.3,0.3,0.7,0,1
		l-1.5,1.7h2.9c1.8,0,3.6-0.3,4.9-1.7c1-1.1,1.6-2.9,1.6-4.4C27.7,180.3,28,180,28.4,180L28.4,180z"/>
</g>
</svg>
